<svg width="19" height="19" viewBox="0 0 19 19" fill="none" xmlns="http://www.w3.org/2000/svg">
<path d="M15.905 0.078125H2.405C1.765 0.078125 1.225 0.298126 0.785 0.738125C0.345 1.17813 0.125 1.71813 0.125 2.35813V15.7981C0.125 16.4381 0.345 16.9781 0.785 17.4181C1.225 17.8581 1.745 18.0781 2.345 18.0781H15.905C16.505 18.0781 17.025 17.8581 17.465 17.4181C17.905 16.9781 18.125 16.4381 18.125 15.7981V2.29813C18.125 1.69813 17.905 1.17813 17.465 0.738125C17.025 0.298126 16.485 0.078125 15.845 0.078125H15.905ZM1.265 4.39813C1.265 4.15812 1.375 3.93813 1.595 3.73812C1.815 3.53813 2.065 3.43813 2.345 3.43813H15.905C16.185 3.43813 16.435 3.53813 16.655 3.73812C16.875 3.93813 16.985 4.15812 16.985 4.39813V15.9781C16.985 16.2581 16.875 16.4881 16.655 16.6681C16.435 16.8481 16.185 16.9381 15.905 16.9381H2.405C2.085 16.9381 1.815 16.8481 1.595 16.6681C1.375 16.4881 1.265 16.2581 1.265 15.9781V4.39813ZM7.445 7.93813C7.765 7.93813 8.035 7.82812 8.255 7.60813C8.475 7.38813 8.585 7.12813 8.585 6.82812C8.585 6.52812 8.475 6.26813 8.255 6.04813C8.035 5.82812 7.765 5.71813 7.445 5.71813C7.125 5.71813 6.855 5.82812 6.635 6.04813C6.415 6.26813 6.305 6.52812 6.305 6.82812C6.305 7.12813 6.415 7.38813 6.635 7.60813C6.855 7.82812 7.125 7.93813 7.445 7.93813ZM10.805 7.93813C11.125 7.93813 11.395 7.82812 11.615 7.60813C11.835 7.38813 11.945 7.12813 11.945 6.82812C11.945 6.52812 11.835 6.26813 11.615 6.04813C11.395 5.82812 11.125 5.71813 10.805 5.71813C10.485 5.71813 10.215 5.82812 9.995 6.04813C9.775 6.26813 9.665 6.52812 9.665 6.82812C9.665 7.12813 9.775 7.38813 9.995 7.60813C10.215 7.82812 10.485 7.93813 10.805 7.93813ZM14.165 7.93813C14.485 7.93813 14.755 7.82812 14.975 7.60813C15.195 7.38813 15.305 7.12813 15.305 6.82812C15.305 6.52812 15.195 6.26813 14.975 6.04813C14.755 5.82812 14.495 5.71813 14.195 5.71813C13.895 5.71813 13.635 5.82812 13.415 6.04813C13.195 6.26813 13.085 6.52812 13.085 6.82812C13.085 7.12813 13.195 7.38813 13.415 7.60813C13.635 7.82812 13.885 7.93813 14.165 7.93813ZM4.085 11.2981C4.365 11.3381 4.615 11.2481 4.835 11.0281C5.055 10.8081 5.165 10.5381 5.165 10.2181C5.165 9.89813 5.055 9.62813 4.835 9.40812C4.615 9.18813 4.355 9.07812 4.055 9.07812C3.755 9.07812 3.495 9.18813 3.275 9.40812C3.055 9.62813 2.945 9.89813 2.945 10.2181C2.945 10.5381 3.055 10.7981 3.275 10.9981C3.495 11.1981 3.765 11.2981 4.085 11.2981ZM7.445 11.2981C7.765 11.3381 8.035 11.2481 8.255 11.0281C8.475 10.8081 8.585 10.5381 8.585 10.2181C8.585 9.89813 8.475 9.62813 8.255 9.40812C8.035 9.18813 7.765 9.07812 7.445 9.07812C7.125 9.07812 6.855 9.18813 6.635 9.40812C6.415 9.62813 6.305 9.89813 6.305 10.2181C6.305 10.5381 6.415 10.8081 6.635 11.0281C6.855 11.2481 7.125 11.3381 7.445 11.2981ZM10.805 11.2981C11.125 11.3381 11.395 11.2481 11.615 11.0281C11.835 10.8081 11.945 10.5381 11.945 10.2181C11.945 9.89813 11.835 9.62813 11.615 9.40812C11.395 9.18813 11.125 9.07812 10.805 9.07812C10.485 9.07812 10.215 9.18813 9.995 9.40812C9.775 9.62813 9.665 9.89813 9.665 10.2181C9.665 10.5381 9.775 10.8081 9.995 11.0281C10.215 11.2481 10.485 11.3381 10.805 11.2981ZM14.165 11.2981C14.485 11.3381 14.755 11.2481 14.975 11.0281C15.195 10.8081 15.305 10.5381 15.305 10.2181C15.305 9.89813 15.195 9.62813 14.975 9.40812C14.755 9.18813 14.495 9.07812 14.195 9.07812C13.895 9.07812 13.635 9.18813 13.415 9.40812C13.195 9.62813 13.085 9.89813 13.085 10.2181C13.085 10.5381 13.195 10.8081 13.415 11.0281C13.635 11.2481 13.885 11.3381 14.165 11.2981ZM4.085 14.7181C4.365 14.7181 4.615 14.6081 4.835 14.3881C5.055 14.1681 5.165 13.8981 5.165 13.5781C5.165 13.2581 5.055 12.9881 4.835 12.7681C4.615 12.5481 4.355 12.4381 4.055 12.4381C3.755 12.4381 3.495 12.5481 3.275 12.7681C3.055 12.9881 2.945 13.2581 2.945 13.5781C2.945 13.8981 3.055 14.1681 3.275 14.3881C3.495 14.6081 3.765 14.7181 4.085 14.7181ZM7.445 14.7181C7.765 14.7181 8.035 14.6081 8.255 14.3881C8.475 14.1681 8.585 13.8981 8.585 13.5781C8.585 13.2581 8.475 12.9881 8.255 12.7681C8.035 12.5481 7.765 12.4381 7.445 12.4381C7.125 12.4381 6.855 12.5481 6.635 12.7681C6.415 12.9881 6.305 13.2581 6.305 13.5781C6.305 13.8981 6.415 14.1681 6.635 14.3881C6.855 14.6081 7.125 14.7181 7.445 14.7181ZM10.805 14.7181C11.125 14.7181 11.395 14.6081 11.615 14.3881C11.835 14.1681 11.945 13.8981 11.945 13.5781C11.945 13.2581 11.835 12.9881 11.615 12.7681C11.395 12.5481 11.125 12.4381 10.805 12.4381C10.485 12.4381 10.215 12.5481 9.995 12.7681C9.775 12.9881 9.665 13.2581 9.665 13.5781C9.665 13.8981 9.775 14.1681 9.995 14.3881C10.215 14.6081 10.485 14.7181 10.805 14.7181Z" fill="white"/>
</svg>
