<?xml version="1.0" encoding="UTF-8"?> <svg xmlns="http://www.w3.org/2000/svg" width="40" height="40" viewBox="0 0 40 40" fill="none"><rect x="1" y="1" width="38" height="38" rx="19" stroke="black" stroke-width="2"></rect><path d="M12 20.1671C12 19.884 12.0889 19.6541 12.2667 19.4772C12.4444 19.3003 12.6756 19.2118 12.96 19.2118H24.5867L20.32 14.8604C20.0356 14.6481 19.9467 14.3474 20.0533 13.9582C20.16 13.5691 20.3911 13.3214 20.7467 13.2153C21.1022 13.1092 21.4222 13.1976 21.7067 13.4806L27.68 19.4241C27.8933 19.6364 28 19.884 28 20.1671C28 20.4501 27.8933 20.6977 27.68 20.91L21.7067 26.8535C21.4933 27.0657 21.2444 27.1719 20.96 27.1719C20.6756 27.1719 20.4444 27.0657 20.2667 26.8535C20.0889 26.6412 20 26.3936 20 26.1105C20 25.8275 20.1067 25.6152 20.32 25.4737L24.5867 21.1223H12.96C12.6756 21.1223 12.4444 21.0338 12.2667 20.8569C12.0889 20.68 12 20.4501 12 20.1671Z" fill="black"></path></svg> 