<?xml version="1.0" encoding="UTF-8"?> <svg xmlns="http://www.w3.org/2000/svg" width="38" height="38" viewBox="0 0 38 38" fill="none"><g clip-path="url(#clip0_308_2901)"><g clip-path="url(#clip1_308_2901)"><g clip-path="url(#clip2_308_2901)"><path d="M33.186 17.2751C33.9117 17.4895 34.6893 17.4456 35.3862 17.1507C36.0831 16.8558 36.6561 16.3282 37.0075 15.658C37.3589 14.9878 37.4669 14.2165 37.3131 13.4756C37.1592 12.7346 36.7531 12.07 36.164 11.5951C37.798 7.47311 37.822 4.02911 35.918 2.12511C32.937 -0.848893 26.207 0.916108 19.007 6.05611C18.415 5.62711 17.823 5.23911 17.239 4.85611C17.3273 4.55227 17.3724 4.23752 17.373 3.92111C17.3746 3.24234 17.1648 2.57992 16.7729 2.02577C16.3809 1.47162 15.8261 1.05322 15.1856 0.828645C14.5451 0.604067 13.8505 0.584445 13.1983 0.772502C12.5461 0.96056 11.9686 1.34697 11.546 1.87811C7.424 0.244107 3.98 0.220107 2.076 2.12411C-0.896999 5.10211 0.868001 11.8351 6.003 19.0371C0.868001 26.2571 -0.896999 32.9881 2.076 35.9631C2.61999 36.4633 3.25828 36.85 3.95352 37.1005C4.64876 37.351 5.38699 37.4604 6.125 37.4221C9.54 37.4221 14.162 35.4891 18.994 32.0461C23.828 35.4821 28.448 37.4221 31.863 37.4221C32.6 37.4627 33.3376 37.355 34.0322 37.1054C34.7269 36.8559 35.3644 36.4695 35.907 35.9691C38.882 32.9941 37.133 26.2611 31.981 19.0511C32.4057 18.4511 32.8057 17.8591 33.181 17.2751H33.186ZM34.121 15.7671C33.7427 15.7674 33.376 15.6365 33.0834 15.3967C32.7908 15.1569 32.5904 14.823 32.5164 14.452C32.4423 14.081 32.4993 13.6958 32.6774 13.3621C32.8556 13.0284 33.144 12.7668 33.4934 12.6218C33.8429 12.4769 34.2318 12.4577 34.5938 12.5673C34.9559 12.677 35.2687 12.9089 35.479 13.2234C35.6892 13.5379 35.7839 13.9156 35.7469 14.2921C35.7099 14.6686 35.5435 15.0206 35.276 15.2881C35.1244 15.44 34.9444 15.5604 34.7462 15.6426C34.548 15.7248 34.3356 15.7671 34.121 15.7671ZM31.832 2.28511C32.3593 2.24799 32.8887 2.31547 33.3898 2.48365C33.8909 2.65184 34.3539 2.91741 34.752 3.26511C36.085 4.59311 36.059 7.35011 34.679 10.9091C34.2091 10.8274 33.7271 10.8495 33.2666 10.9739C32.8062 11.0983 32.3786 11.3219 32.0138 11.6292C31.649 11.9364 31.3559 12.3198 31.155 12.7523C30.9541 13.1849 30.8504 13.6562 30.851 14.1331C30.8498 14.5603 30.9332 14.9835 31.0964 15.3783C31.2596 15.773 31.4994 16.1315 31.802 16.4331C31.54 16.8421 31.263 17.2501 30.985 17.6591C29.4563 15.6742 27.8002 13.7909 26.027 12.0211C24.2538 10.2501 22.365 8.5988 20.373 7.07811C24.927 3.92011 29.034 2.28611 31.831 2.28611L31.832 2.28511ZM14.102 2.28511C14.4252 2.28511 14.7411 2.38094 15.0098 2.56049C15.2785 2.74003 15.4879 2.99523 15.6116 3.2938C15.7353 3.59238 15.7677 3.92092 15.7046 4.23788C15.6416 4.55485 15.4859 4.846 15.2574 5.07452C15.0289 5.30304 14.7377 5.45866 14.4208 5.52171C14.1038 5.58476 13.7753 5.5524 13.4767 5.42873C13.1781 5.30505 12.9229 5.09562 12.7434 4.82691C12.5638 4.5582 12.468 4.24228 12.468 3.91911C12.4677 3.70403 12.51 3.49102 12.5923 3.29233C12.6747 3.09364 12.7955 2.91318 12.9478 2.76133C13.1001 2.60948 13.2809 2.48924 13.4798 2.40751C13.6788 2.32578 13.8919 2.28418 14.107 2.28511H14.102ZM3.231 3.28511C3.62811 2.93469 4.0904 2.666 4.59145 2.49441C5.09249 2.32282 5.62245 2.25169 6.151 2.28511C7.77748 2.35345 9.37807 2.71633 10.875 3.35611C10.7559 4.03804 10.8564 4.74017 11.1621 5.36129C11.4677 5.98241 11.9627 6.49043 12.5757 6.8121C13.1887 7.13377 13.888 7.25248 14.5728 7.15112C15.2576 7.04976 15.8925 6.73356 16.386 6.24811C16.795 6.51311 17.203 6.78311 17.612 7.06511C15.6262 8.59318 13.7443 10.2518 11.979 12.0301C10.2042 13.7975 8.54696 15.6792 7.018 17.6631C2.401 11.0451 1.136 5.37311 3.231 3.28311V3.28511ZM3.231 34.8081C1.131 32.7161 2.414 27.0461 7.018 20.4231C8.54686 22.4084 10.2037 24.2917 11.978 26.0611C13.7479 27.8343 15.6312 29.4904 17.616 31.0191C10.988 35.6361 5.323 36.9031 3.231 34.8081ZM13.131 24.9081C11.2878 23.0769 9.57747 21.1166 8.013 19.0421C11.1646 14.9058 14.863 11.2165 19.007 8.07511C21.0731 9.63924 23.0266 11.3468 24.853 13.1851C26.6939 15.0132 28.4044 16.968 29.972 19.0351C28.4067 21.1092 26.6961 23.0695 24.853 24.9011C23.0272 26.7431 21.0736 28.454 19.007 30.0211C16.931 28.4555 14.9684 26.7449 13.134 24.9021L13.131 24.9081ZM34.752 34.8081C32.66 36.9081 26.99 35.6251 20.367 31.0211C22.3525 29.4925 24.2365 27.8364 26.007 26.0631C27.7812 24.2937 29.4381 22.4104 30.967 20.4251C35.582 27.0481 36.849 32.7181 34.754 34.8101L34.752 34.8081Z" fill="black"></path><path d="M19.005 13.3164C17.6814 13.316 16.3986 13.7746 15.3751 14.614C14.3517 15.4534 13.651 16.6218 13.3925 17.9199C13.134 19.218 13.3335 20.5657 13.9572 21.7332C14.5809 22.9006 15.5902 23.8157 16.8129 24.3225C18.0357 24.8293 19.3964 24.8964 20.6631 24.5123C21.9298 24.1283 23.0242 23.317 23.7597 22.2165C24.4952 21.116 24.8264 19.7946 24.6968 18.4773C24.5672 17.16 23.9849 15.9284 23.049 14.9924C22.518 14.4612 21.8876 14.0397 21.1937 13.7522C20.4998 13.4646 19.7561 13.3165 19.005 13.3164ZM19.005 23.1164C18.0597 23.1174 17.1433 22.7907 16.4119 22.1918C15.6805 21.5929 15.1794 20.7589 14.9939 19.832C14.8085 18.905 14.9502 17.9424 15.3949 17.1083C15.8396 16.2741 16.5598 15.6199 17.4327 15.2572C18.3057 14.8944 19.2774 14.8456 20.1823 15.119C21.0872 15.3924 21.8693 15.9712 22.3954 16.7566C22.9215 17.542 23.1589 18.4855 23.0673 19.4264C22.9757 20.3672 22.5607 21.2472 21.893 21.9164C21.514 22.2963 21.0639 22.5977 20.5684 22.8036C20.0728 23.0095 19.5416 23.1158 19.005 23.1164Z" fill="black"></path></g></g></g><defs><clipPath id="clip0_308_2901"><rect width="36.75" height="36.78" fill="white" transform="translate(0.630005 0.640625)"></rect></clipPath><clipPath id="clip1_308_2901"><rect width="36.75" height="36.78" fill="white" transform="translate(0.630005 0.640625)"></rect></clipPath><clipPath id="clip2_308_2901"><rect width="36.75" height="36.776" fill="white" transform="translate(0.630005 0.644531)"></rect></clipPath></defs></svg> 