<?xml version="1.0" encoding="UTF-8"?> <svg xmlns="http://www.w3.org/2000/svg" width="38" height="38" viewBox="0 0 38 38" fill="none"><g clip-path="url(#clip0_748_623)"><path d="M18.3271 13.5023C21.4321 13.5023 24.7761 12.5803 24.7761 10.5623C24.7761 8.54428 21.4321 7.61328 18.3271 7.61328C15.2221 7.61328 11.8701 8.53528 11.8701 10.5623C11.8701 12.5893 15.2171 13.5023 18.3271 13.5023ZM18.3271 9.26028C21.3421 9.26028 23.0791 10.1823 23.1271 10.5603C23.1751 10.9383 21.3401 11.8533 18.3271 11.8533C15.3141 11.8533 13.5661 10.9313 13.5171 10.5603C13.4681 10.1893 15.3051 9.26028 18.3271 9.26028Z" fill="black"></path><path d="M36.0689 1.98755C33.6969 -0.392453 28.7689 0.414546 22.5529 4.21955C22.4504 4.28506 22.3634 4.37207 22.2979 4.47455C19.8458 3.91452 17.292 3.98309 14.8736 4.67389C12.4551 5.3647 10.2504 6.65534 8.46403 8.426C6.6777 10.1967 5.36769 12.39 4.65562 14.8023C3.94354 17.2145 3.85249 19.7677 4.3909 22.2245C0.412901 28.6155 -0.472098 33.6725 1.9209 36.1025C2.41494 36.5574 2.99568 36.9078 3.62835 37.1329C4.26102 37.358 4.93261 37.4531 5.6029 37.4125C8.3129 37.4125 11.8869 36.0945 15.8029 33.6645C17.9894 34.1483 20.2566 34.1346 22.4371 33.6245C24.6175 33.1143 26.6555 32.1208 28.4005 30.7174C30.1454 29.3139 31.5527 27.5363 32.5185 25.5159C33.4842 23.4954 33.9836 21.2839 33.9799 19.0445C33.9757 17.9788 33.8625 16.9162 33.6419 15.8735C37.4879 9.72055 38.5419 4.45855 36.0719 1.98655L36.0689 1.98755ZM34.9069 3.15155C36.5949 4.85155 35.7309 8.91755 32.9799 13.7185C32.2292 11.7453 31.0705 9.95266 29.5796 8.45781C28.0887 6.96295 26.2992 5.79952 24.3279 5.04355C29.2569 2.25155 33.2679 1.50955 34.9069 3.15155ZM19.0069 5.72955C21.937 5.73652 24.7833 6.70838 27.1057 8.49493C29.4282 10.2815 31.0976 12.7832 31.8559 15.6135C30.4904 17.6866 28.9793 19.6599 27.3339 21.5185C26.7136 21.123 25.9936 20.9118 25.2579 20.9095C24.5481 20.9044 23.85 21.0912 23.2377 21.4504C22.6254 21.8095 22.1216 22.3276 21.7797 22.9497C21.4378 23.5718 21.2705 24.2748 21.2956 24.9842C21.3206 25.6936 21.537 26.3831 21.9219 26.9795C19.9322 28.7872 17.8066 30.4393 15.5639 31.9215C12.423 31.1045 9.68882 29.168 7.87564 26.4763C6.06246 23.7846 5.29522 20.5232 5.71821 17.3055C6.14121 14.0877 7.7253 11.1354 10.1725 9.00373C12.6198 6.8721 15.7615 5.70706 19.0069 5.72955ZM22.9479 24.8765C22.9461 24.4183 23.0804 23.9698 23.3337 23.5879C23.5871 23.206 23.9481 22.9078 24.371 22.7313C24.7939 22.5547 25.2597 22.5076 25.7094 22.596C26.159 22.6844 26.5724 22.9043 26.897 23.2278C27.2216 23.5513 27.4429 23.9638 27.5329 24.4132C27.6228 24.8626 27.5773 25.3285 27.4022 25.7521C27.2271 26.1756 26.9303 26.5376 26.5492 26.7923C26.1682 27.0469 25.7202 27.1827 25.2619 27.1825C24.6493 27.1833 24.0615 26.9409 23.6276 26.5085C23.1937 26.0761 22.9492 25.4891 22.9479 24.8765ZM3.1149 34.9415C1.4679 33.2945 2.2909 29.2415 5.0339 24.3575C5.78872 26.3353 6.95194 28.1318 8.44772 29.6298C9.9435 31.1279 11.7382 32.2938 13.7149 33.0515C8.6149 35.9345 4.6719 36.5025 3.1149 34.9455V34.9415ZM32.3279 19.0455C32.325 22.5765 30.9212 25.962 28.4246 28.4589C25.9281 30.9558 22.5428 32.3601 19.0119 32.3635C18.635 32.3732 18.2579 32.3538 17.8839 32.3055C19.6981 31.0382 21.4345 29.663 23.0839 28.1875C23.7298 28.6195 24.4899 28.8489 25.2669 28.8465C25.9879 28.8515 26.6965 28.6591 27.316 28.2903C27.9355 27.9215 28.4424 27.3903 28.7817 26.7541C29.1211 26.118 29.28 25.4012 29.2412 24.6812C29.2025 23.9612 28.9676 23.2656 28.5619 22.6695C29.8903 21.1648 31.1371 19.5898 32.2969 17.9515C32.3049 18.3055 32.3299 18.6765 32.3299 19.0515L32.3279 19.0455Z" fill="black"></path><path d="M16.4822 23.6508C15.6828 23.1751 14.7586 22.9513 13.8302 23.0089C13.3919 23.0145 12.9626 23.134 12.5845 23.3556C12.2063 23.5772 11.8922 23.8932 11.673 24.2728C11.4538 24.6523 11.337 25.0823 11.334 25.5206C11.3311 25.9589 11.4421 26.3904 11.6562 26.7729C12.0689 27.6085 12.7269 28.2982 13.5422 28.7498C14.2485 29.1687 15.052 29.3959 15.8732 29.4089H16.1992C16.6386 29.3843 17.0655 29.2531 17.4428 29.0266C17.8202 28.8001 18.1368 28.4851 18.3652 28.1088C19.1892 26.7008 18.3652 24.7318 16.4872 23.6528L16.4822 23.6508ZM16.9272 27.2828C16.8256 27.419 16.694 27.53 16.5426 27.6072C16.3912 27.6844 16.2241 27.7257 16.0542 27.7279C15.4615 27.756 14.8738 27.607 14.3662 27.2998C13.8469 27.0134 13.423 26.5808 13.1472 26.0558C13.0451 25.9143 12.9861 25.7463 12.9772 25.5721C12.9682 25.3978 13.0097 25.2247 13.0967 25.0734C13.1837 24.9222 13.3124 24.7992 13.4675 24.7193C13.6226 24.6394 13.7975 24.6059 13.9712 24.6228H14.1522C14.6835 24.6375 15.2023 24.788 15.6592 25.0598C16.7872 25.7268 17.2322 26.7729 16.9272 27.2839V27.2828Z" fill="black"></path><path d="M12.5044 20.8797C12.8673 20.6563 13.1736 20.3519 13.3991 19.9904C13.6247 19.6288 13.7634 19.2199 13.8044 18.7957C13.8986 17.9091 13.7021 17.0159 13.2444 16.2507C12.2444 14.5127 10.2714 13.7797 8.85443 14.6037C8.49151 14.8271 8.18527 15.1315 7.95973 15.4931C7.73418 15.8546 7.59545 16.2635 7.55443 16.6877C7.4557 17.5761 7.64951 18.4725 8.10643 19.2407C8.41308 19.8137 8.86215 20.2981 9.41037 20.6472C9.95859 20.9963 10.5875 21.1983 11.2364 21.2337C11.6829 21.2298 12.1205 21.1077 12.5044 20.8797ZM9.53943 18.4087C9.26737 17.9495 9.14635 17.4164 9.19343 16.8847C9.20657 16.7129 9.2577 16.5462 9.34313 16.3966C9.42856 16.247 9.54616 16.1183 9.68743 16.0197C9.82928 15.944 9.98764 15.9045 10.1484 15.9047C10.4999 15.9499 10.8346 16.082 11.1222 16.289C11.4098 16.4961 11.6412 16.7717 11.7954 17.0907C12.0729 17.5446 12.1971 18.0758 12.1494 18.6057C12.1363 18.7775 12.0852 18.9442 11.9997 19.0938C11.9143 19.2434 11.7967 19.3721 11.6554 19.4707C11.0624 19.8087 10.0824 19.3227 9.53843 18.3917L9.53943 18.4087Z" fill="black"></path></g><defs><clipPath id="clip0_748_623"><rect width="36.801" height="36.777" fill="white" transform="translate(0.599609 0.644531)"></rect></clipPath></defs></svg> 