<?xml version="1.0" encoding="UTF-8"?> <svg xmlns="http://www.w3.org/2000/svg" width="104" height="56" viewBox="0 0 104 56" fill="none"><path d="M40.2332 38.4866C39.9654 38.1555 39.6976 37.8244 39.4297 37.4933C39.4211 37.4845 39.4125 37.4802 39.4038 37.4802C31.058 27.4817 19.7574 20.986 5.69648 17.7577C4.65973 18.4635 3.63162 19.191 2.61214 19.9404C17.0359 22.5936 33.0926 30.6838 41.2441 39.7936C40.959 39.4102 40.6695 39.0355 40.3758 38.6695C40.3239 38.6086 40.2764 38.5476 40.2332 38.4866Z" fill="#DBDCDD"></path><path fill-rule="evenodd" clip-rule="evenodd" d="M54.4756 13.0525L53.1278 2.71422H52.9853L51.7023 12.6604L44.8338 3.36772C44.8165 3.37643 44.8036 3.38514 44.7949 3.39385C44.7776 3.40257 44.7561 3.41564 44.7301 3.43306C44.7215 3.43306 44.7129 3.43742 44.7042 3.44613L48.929 12.9872L31.68 5.77258C31.693 5.7203 31.706 5.70723 31.68 5.77258C31.6541 5.81614 31.6368 5.851 31.6282 5.87714C31.6196 5.88585 31.6152 5.89456 31.6152 5.90328L47.3998 15.1045L7.42008 16.2546V16.3984L47.5423 17.5616L32.0947 26.3838C32.0688 26.3185 32.0688 26.3446 32.0947 26.3838C32.1207 26.4448 32.1423 26.4884 32.1595 26.5145C32.1595 26.5145 32.1595 26.5189 32.1595 26.5276C32.1725 26.5537 32.1855 26.5537 32.1595 26.5276C32.1595 26.5276 32.1595 26.5232 32.1595 26.5145C32.1336 26.4753 32.1077 26.423 32.0947 26.3838C32.1034 26.41 32.125 26.4535 32.1595 26.5145L49.9009 19.3784C46.363 25.0768 43.4731 31.8732 41.2441 39.7936C31.7578 27.168 17.982 19.5875 0.266499 16.699C16.375 6.58291 34.6218 0.453125 53.063 0.453125C58.2468 0.453125 63.4435 0.988991 68.6272 1.89082C63.3009 4.46559 58.5708 8.19051 54.4756 13.0525ZM31.6412 5.83793C31.6325 5.86407 31.6239 5.88585 31.6152 5.90328C31.6152 5.89456 31.6196 5.88585 31.6282 5.87714C31.6282 5.85971 31.6325 5.84664 31.6412 5.83793ZM44.8079 3.38078C44.7993 3.3895 44.7906 3.39385 44.782 3.39385C44.782 3.39385 44.7863 3.39385 44.7949 3.39385C44.8036 3.38514 44.8079 3.38078 44.8079 3.38078ZM44.7301 3.43306C44.7215 3.43306 44.7215 3.43306 44.7301 3.43306V3.43306ZM44.7431 3.41999C44.7517 3.41128 44.7647 3.40257 44.782 3.39385C44.7647 3.41128 44.7517 3.41999 44.7431 3.41999Z" fill="#F16522"></path><path d="M53.0635 32.2H55.9275V16.6991H53.0635V32.2Z" fill="white"></path><path d="M63.0163 16.6991L56.5625 24.4496L63.0163 32.2H66.8393L60.217 24.4496L66.8393 16.6991H63.0163Z" fill="white"></path><path d="M98.7578 23.0772C96.4121 22.3583 95.6735 21.9532 95.6735 20.8684C95.6735 20.3064 95.8808 20.0711 96.0752 19.9143C97.2545 18.9863 100.663 19.2869 102.633 19.7836L103.19 17.052C102.568 16.8951 97.0342 15.6012 94.3646 17.7185C93.4185 18.4766 92.9131 19.5614 92.9131 20.8684C92.9131 24.1751 95.816 25.09 97.9414 25.7565C100.261 26.4884 100.987 26.8805 100.987 27.9392C100.987 28.4751 100.779 28.7103 100.585 28.8802C99.3928 29.8605 95.9197 29.6906 93.8462 29.2593L93.276 31.9909C93.6129 32.0562 95.3106 32.396 97.2545 32.396C99.0429 32.396 101.039 32.1085 102.335 31.0498C103.268 30.2918 103.76 29.207 103.76 27.9392C103.76 24.6586 100.87 23.7438 98.7578 23.0772Z" fill="white"></path><path d="M70.9988 23.5085V19.5875H78.3727L79.565 16.6991H68.1348V32.2H70.9988V26.3316H75.4957L76.6491 23.5085H70.9988Z" fill="white"></path><path d="M82.3512 16.6991L75.9882 32.2H79.1632L80.4332 28.8803H84.4895L85.6559 26.0702H81.5089L84.0619 19.3784L88.9475 32.2H92.1356L85.7725 16.6991H82.3512Z" fill="white"></path><path d="M2.05489 52.0663L1.18661 53.2295L0.681198 53.9483H0.629361L0.65528 53.2295V52.0663H0.266499V55.5559H0.65528V54.4058L1.10886 53.8307L2.11969 55.5559H2.58623L1.36805 53.5693L2.50847 52.0663H2.05489Z" fill="white"></path><path d="M4.43973 55.1369H4.38789C4.33606 55.3024 4.2583 55.4244 4.15463 55.5028C4.05095 55.5813 3.9084 55.6205 3.72697 55.6205C3.50234 55.6205 3.32522 55.542 3.19563 55.3852C3.0574 55.2284 2.98828 54.9844 2.98828 54.6533V52.9803H3.37706V54.6402C3.37706 54.8406 3.41594 54.9975 3.4937 55.1107C3.58009 55.224 3.70969 55.2806 3.88248 55.2806C4.03799 55.2806 4.16758 55.2327 4.27126 55.1369C4.38357 55.041 4.43973 54.9103 4.43973 54.7448V52.9803H4.81555V55.5551H4.43973V55.1369Z" fill="white"></path><path d="M8.17164 52.9803L7.92541 54.1044L7.7051 55.2284H7.65327L7.40704 54.1044L7.14785 52.9803H6.70723L6.44804 54.1044L6.20182 55.2284H6.14998L5.92967 54.1044L5.68344 52.9803H5.30762L5.92967 55.5551H6.40916L6.72019 54.3135L6.90162 53.3594H6.95346L7.12193 54.3135L7.43296 55.5551H7.91245L8.5345 52.9803H8.17164Z" fill="white"></path><path fill-rule="evenodd" clip-rule="evenodd" d="M10.5689 55.5559C10.327 55.5559 10.2061 55.4339 10.2061 55.1899V55.1377H10.1542C10.111 55.2945 10.0333 55.4165 9.92096 55.5036C9.80865 55.582 9.67042 55.6212 9.50626 55.6212C9.26436 55.6212 9.08292 55.5559 8.96197 55.4252C8.83238 55.3032 8.76758 55.1202 8.76758 54.8763C8.76758 54.6323 8.84966 54.4406 9.01381 54.3012C9.16932 54.1618 9.41123 54.0921 9.73953 54.0921H10.2061V53.8045C10.2061 53.6128 10.1629 53.4734 10.0765 53.3863C9.99872 53.2904 9.86481 53.2425 9.67473 53.2425C9.52786 53.2425 9.41123 53.2774 9.32483 53.3471C9.2298 53.4081 9.15204 53.5039 9.09156 53.6346L8.8583 53.4124C8.92741 53.273 9.03541 53.1554 9.18228 53.0595C9.32915 52.9637 9.50194 52.9158 9.70066 52.9158C9.98576 52.9158 10.2061 52.9898 10.3616 53.138C10.5085 53.2774 10.5819 53.4865 10.5819 53.7653V55.2291H10.8411V55.5559H10.5689ZM9.59698 55.2814C9.68338 55.2814 9.76545 55.2684 9.84321 55.2422C9.92096 55.2074 9.98576 55.1681 10.0376 55.1246C10.0894 55.0723 10.1283 55.0157 10.1542 54.9547C10.1888 54.8937 10.2061 54.8327 10.2061 54.7717V54.3796H9.72657C9.52786 54.3796 9.38531 54.4145 9.29891 54.4842C9.20388 54.5452 9.15636 54.641 9.15636 54.7717V54.9024C9.15636 55.0331 9.19956 55.1289 9.28595 55.1899C9.36371 55.2509 9.46739 55.2814 9.59698 55.2814Z" fill="white"></path><path d="M11.3468 52.9819H11.7226V55.5567H11.3468V52.9819ZM11.5282 52.3676C11.3727 52.3676 11.2949 52.2979 11.2949 52.1585V52.0801C11.2949 51.9407 11.3727 51.871 11.5282 51.871C11.6837 51.871 11.7615 51.9407 11.7615 52.0801V52.1585C11.7615 52.2979 11.6837 52.3676 11.5282 52.3676Z" fill="white"></path><path d="M12.9794 55.5552C12.8499 55.5552 12.7505 55.5247 12.6814 55.4637C12.6209 55.4027 12.5907 55.3069 12.5907 55.1762V53.3072H12.2148V52.9804H12.4481C12.5172 52.9804 12.5647 52.9587 12.5907 52.9151C12.6166 52.8802 12.6295 52.8236 12.6295 52.7452V52.2616H12.9794V52.9804H13.4719V53.3072H12.9794V55.2285H13.446V55.5552H12.9794Z" fill="white"></path><path d="M15.1179 52.0663V55.5559H15.5067V53.9745H16.8545V53.6085H15.5067V52.4192H16.9841V52.0663H15.1179Z" fill="white"></path><path fill-rule="evenodd" clip-rule="evenodd" d="M18.3192 55.6212C18.1724 55.6212 18.0341 55.5951 17.9045 55.5428C17.7749 55.4993 17.6626 55.4208 17.5676 55.3076C17.4812 55.1943 17.4078 55.0549 17.3473 54.8893C17.2955 54.7151 17.2695 54.5103 17.2695 54.275C17.2695 54.0311 17.2955 53.8219 17.3473 53.6477C17.4078 53.4821 17.4812 53.3427 17.5676 53.2294C17.6626 53.1249 17.7749 53.0465 17.9045 52.9942C18.0341 52.9419 18.1724 52.9158 18.3192 52.9158C18.4661 52.9158 18.6043 52.9419 18.7339 52.9942C18.8635 53.0465 18.9758 53.1249 19.0709 53.2294C19.1659 53.3427 19.2394 53.4821 19.2912 53.6477C19.343 53.8219 19.369 54.0311 19.369 54.275C19.369 54.5103 19.343 54.7151 19.2912 54.8893C19.2394 55.0549 19.1659 55.1943 19.0709 55.3076C18.9758 55.4208 18.8635 55.4993 18.7339 55.5428C18.6043 55.5951 18.4661 55.6212 18.3192 55.6212ZM18.3192 55.2814C18.5266 55.2814 18.6864 55.2204 18.7987 55.0984C18.9111 54.9765 18.9672 54.7891 18.9672 54.5364V54.0136C18.9672 53.7522 18.9111 53.5606 18.7987 53.4386C18.6864 53.3166 18.5266 53.2556 18.3192 53.2556C18.1119 53.2556 17.9564 53.3166 17.8527 53.4386C17.7404 53.5606 17.6842 53.7522 17.6842 54.0136V54.5364C17.6842 54.7891 17.7404 54.9765 17.8527 55.0984C17.9564 55.2204 18.1119 55.2814 18.3192 55.2814Z" fill="white"></path><path d="M21.3516 55.1369H21.2997C21.2565 55.3024 21.1831 55.4244 21.0794 55.5028C20.9758 55.5813 20.8332 55.6205 20.6518 55.6205C20.4185 55.6205 20.2371 55.542 20.1075 55.3852C19.9779 55.2284 19.9131 54.9844 19.9131 54.6533V52.9803H20.2889V54.6402C20.2889 54.8406 20.3321 54.9975 20.4185 55.1107C20.5049 55.224 20.6345 55.2806 20.8073 55.2806C20.9628 55.2806 21.0924 55.2327 21.1961 55.1369C21.2997 55.041 21.3516 54.9103 21.3516 54.7448V52.9803H21.7274V55.5551H21.3516V55.1369Z" fill="white"></path><path d="M22.4785 55.5559V52.9811H22.8543V53.3994H22.9062C22.958 53.2425 23.0358 53.1205 23.1394 53.0334C23.2431 52.955 23.3814 52.9158 23.5541 52.9158C23.7874 52.9158 23.9688 52.9942 24.0984 53.151C24.228 53.3079 24.2928 53.5518 24.2928 53.8829V55.5559H23.917V53.9091C23.917 53.7 23.8738 53.5388 23.7874 53.4255C23.701 53.3209 23.5714 53.2687 23.3986 53.2687C23.2431 53.2687 23.1135 53.3122 23.0098 53.3994C22.9062 53.4952 22.8543 53.6303 22.8543 53.8045V55.5559H22.4785Z" fill="white"></path><path fill-rule="evenodd" clip-rule="evenodd" d="M26.4833 55.1508H26.4315C26.3797 55.3163 26.3019 55.434 26.1982 55.5037C26.0859 55.5821 25.9477 55.6213 25.7835 55.6213C25.6366 55.6213 25.5027 55.5908 25.3818 55.5298C25.2695 55.4601 25.1744 55.3686 25.0967 55.2554C25.0189 55.1421 24.9584 54.9983 24.9152 54.824C24.872 54.6585 24.8504 54.4755 24.8504 54.2751C24.8504 54.066 24.872 53.8787 24.9152 53.7131C24.9584 53.5388 25.0189 53.3951 25.0967 53.2818C25.1744 53.1685 25.2695 53.077 25.3818 53.0073C25.5027 52.9463 25.6366 52.9158 25.7835 52.9158C25.9477 52.9158 26.0859 52.9551 26.1982 53.0335C26.3019 53.1032 26.3797 53.2252 26.4315 53.3994H26.4833V51.8572H26.8591V55.556H26.4833V55.1508ZM25.9002 55.2946C25.9779 55.2946 26.0557 55.2815 26.1334 55.2554C26.2025 55.2379 26.263 55.2074 26.3149 55.1639C26.3667 55.1203 26.4056 55.068 26.4315 55.007C26.466 54.946 26.4833 54.8763 26.4833 54.7979V53.7523C26.4833 53.6826 26.466 53.6173 26.4315 53.5563C26.4056 53.4953 26.3667 53.443 26.3149 53.3994C26.263 53.3559 26.2025 53.321 26.1334 53.2949C26.0557 53.2774 25.9779 53.2687 25.9002 53.2687C25.6928 53.2687 25.533 53.3341 25.4207 53.4648C25.317 53.5955 25.2651 53.7785 25.2651 54.0137V54.5365C25.2651 54.7805 25.317 54.9678 25.4207 55.0985C25.533 55.2292 25.6928 55.2946 25.9002 55.2946Z" fill="white"></path><path fill-rule="evenodd" clip-rule="evenodd" d="M29.2174 55.5559C28.9755 55.5559 28.8545 55.4339 28.8545 55.1899V55.1377H28.8027C28.7595 55.2945 28.6817 55.4165 28.5694 55.5036C28.4571 55.582 28.3232 55.6212 28.1677 55.6212C27.9171 55.6212 27.7314 55.5559 27.6104 55.4252C27.4808 55.3032 27.416 55.1202 27.416 54.8763C27.416 54.6323 27.4981 54.4406 27.6622 54.3012C27.8178 54.1618 28.064 54.0921 28.4009 54.0921H28.8545V53.8045C28.8545 53.6128 28.8113 53.4734 28.7249 53.3863C28.6472 53.2904 28.5176 53.2425 28.3361 53.2425C28.1806 53.2425 28.0597 53.2774 27.9733 53.3471C27.8782 53.4081 27.8005 53.5039 27.74 53.6346L27.5067 53.4124C27.5758 53.273 27.6838 53.1554 27.8307 53.0595C27.9776 52.9637 28.1504 52.9158 28.3491 52.9158C28.6342 52.9158 28.8545 52.9898 29.01 53.138C29.1569 53.2774 29.2303 53.4865 29.2303 53.7653V55.2291H29.4895V55.5559H29.2174ZM28.2454 55.2814C28.3318 55.2814 28.4139 55.2684 28.4916 55.2422C28.5694 55.2074 28.6342 55.1681 28.686 55.1246C28.7379 55.0723 28.7768 55.0157 28.8027 54.9547C28.8372 54.8937 28.8545 54.8327 28.8545 54.7717V54.3796H28.375C28.1763 54.3796 28.0337 54.4145 27.9474 54.4842C27.8523 54.5452 27.8048 54.641 27.8048 54.7717V54.9024C27.8048 55.0331 27.848 55.1289 27.9344 55.1899C28.0121 55.2509 28.1158 55.2814 28.2454 55.2814Z" fill="white"></path><path d="M30.5009 55.5552C30.3713 55.5552 30.2763 55.5247 30.2158 55.4637C30.1467 55.4027 30.1121 55.3069 30.1121 55.1762V53.3072H29.7363V52.9804H29.9696C30.0387 52.9804 30.0862 52.9587 30.1121 52.9151C30.1381 52.8802 30.151 52.8236 30.151 52.7452V52.2616H30.5009V52.9804H30.9934V53.3072H30.5009V55.2285H30.9675V55.5552H30.5009Z" fill="white"></path><path d="M31.5636 52.9819H31.9394V55.5567H31.5636V52.9819ZM31.745 52.3676C31.5895 52.3676 31.5117 52.2979 31.5117 52.1585V52.0801C31.5117 51.9407 31.5895 51.871 31.745 51.871C31.9005 51.871 31.9783 51.9407 31.9783 52.0801V52.1585C31.9783 52.2979 31.9005 52.3676 31.745 52.3676Z" fill="white"></path><path fill-rule="evenodd" clip-rule="evenodd" d="M33.5595 55.6212C33.404 55.6212 33.2614 55.5951 33.1318 55.5428C33.0022 55.4993 32.8942 55.4208 32.8078 55.3076C32.7128 55.1943 32.6394 55.0549 32.5875 54.8893C32.5357 54.7151 32.5098 54.5103 32.5098 54.275C32.5098 54.0311 32.5357 53.8219 32.5875 53.6477C32.6394 53.4821 32.7128 53.3427 32.8078 53.2294C32.8942 53.1249 33.0022 53.0465 33.1318 52.9942C33.2614 52.9419 33.404 52.9158 33.5595 52.9158C33.7063 52.9158 33.8446 52.9419 33.9742 52.9942C34.1038 53.0465 34.2118 53.1249 34.2982 53.2294C34.3932 53.3427 34.4666 53.4821 34.5185 53.6477C34.5703 53.8219 34.5962 54.0311 34.5962 54.275C34.5962 54.5103 34.5703 54.7151 34.5185 54.8893C34.4666 55.0549 34.3932 55.1943 34.2982 55.3076C34.2118 55.4208 34.1038 55.4993 33.9742 55.5428C33.8446 55.5951 33.7063 55.6212 33.5595 55.6212ZM33.5595 55.2814C33.7582 55.2814 33.9137 55.2204 34.026 55.0984C34.1383 54.9765 34.1945 54.7891 34.1945 54.5364V54.0136C34.1945 53.7522 34.1383 53.5606 34.026 53.4386C33.9137 53.3166 33.7582 53.2556 33.5595 53.2556C33.3521 53.2556 33.1923 53.3166 33.08 53.4386C32.9677 53.5606 32.9115 53.7522 32.9115 54.0136V54.5364C32.9115 54.7891 32.9677 54.9765 33.08 55.0984C33.1923 55.2204 33.3521 55.2814 33.5595 55.2814Z" fill="white"></path><path d="M35.1661 55.5559V52.9811H35.5549V53.3994H35.5938C35.6456 53.2425 35.7234 53.1205 35.827 53.0334C35.9307 52.955 36.0733 52.9158 36.2547 52.9158C36.4793 52.9158 36.6608 52.9942 36.799 53.151C36.9286 53.3079 36.9934 53.5518 36.9934 53.8829V55.5559H36.6176V53.9091C36.6176 53.7 36.5744 53.5388 36.488 53.4255C36.4016 53.3209 36.272 53.2687 36.0992 53.2687C35.9437 53.2687 35.8141 53.3122 35.7104 53.3994C35.6067 53.4952 35.5549 53.6303 35.5549 53.8045V55.5559H35.1661Z" fill="white"></path><path d="M38.8725 53.3079H38.5096V52.9812H38.8725V52.3408C38.8725 52.1752 38.9114 52.0532 38.9891 51.9748C39.0669 51.8964 39.1922 51.8572 39.365 51.8572H39.7408V52.197H39.2483V52.9812H39.7408V53.3079H39.2483V55.556H38.8725V53.3079Z" fill="white"></path><path fill-rule="evenodd" clip-rule="evenodd" d="M41.0497 55.6212C40.9028 55.6212 40.7646 55.5951 40.635 55.5428C40.5054 55.4993 40.3931 55.4208 40.298 55.3076C40.2116 55.1943 40.1382 55.0549 40.0777 54.8893C40.0259 54.7151 40 54.5103 40 54.275C40 54.0311 40.0259 53.8219 40.0777 53.6477C40.1382 53.4821 40.2116 53.3427 40.298 53.2294C40.3931 53.1249 40.5054 53.0465 40.635 52.9942C40.7646 52.9419 40.9028 52.9158 41.0497 52.9158C41.1965 52.9158 41.3348 52.9419 41.4644 52.9942C41.594 53.0465 41.7063 53.1249 41.8013 53.2294C41.8963 53.3427 41.9698 53.4821 42.0216 53.6477C42.0735 53.8219 42.0994 54.0311 42.0994 54.275C42.0994 54.5103 42.0735 54.7151 42.0216 54.8893C41.9698 55.0549 41.8963 55.1943 41.8013 55.3076C41.7063 55.4208 41.594 55.4993 41.4644 55.5428C41.3348 55.5951 41.1965 55.6212 41.0497 55.6212ZM41.0497 55.2814C41.257 55.2814 41.4169 55.2204 41.5292 55.0984C41.6415 54.9765 41.6976 54.7891 41.6976 54.5364V54.0136C41.6976 53.7522 41.6415 53.5606 41.5292 53.4386C41.4169 53.3166 41.257 53.2556 41.0497 53.2556C40.8423 53.2556 40.6868 53.3166 40.5831 53.4386C40.4708 53.5606 40.4147 53.7522 40.4147 54.0136V54.5364C40.4147 54.7891 40.4708 54.9765 40.5831 55.0984C40.6868 55.2204 40.8423 55.2814 41.0497 55.2814Z" fill="white"></path><path d="M42.6699 55.5551V52.9803H43.0457V53.4509H43.0976C43.1408 53.3027 43.2142 53.1851 43.3179 53.098C43.4216 53.0196 43.5598 52.9803 43.7326 52.9803H43.8622V53.3594H43.616C43.4432 53.3594 43.3049 53.3986 43.2013 53.477C43.0976 53.5641 43.0457 53.6861 43.0457 53.843V55.5551H42.6699Z" fill="white"></path><path d="M45.8701 55.5552C45.7318 55.5552 45.6325 55.5247 45.572 55.4637C45.5115 55.4027 45.4813 55.3069 45.4813 55.1762V53.3072H45.1055V52.9804H45.3258C45.4035 52.9804 45.4554 52.9587 45.4813 52.9151C45.5072 52.8802 45.5202 52.8236 45.5202 52.7452V52.2616H45.8571V52.9804H46.3496V53.3072H45.8571V55.2285H46.3237V55.5552H45.8701Z" fill="white"></path><path d="M46.9199 51.8572H47.2957V53.3994H47.3476C47.3994 53.2426 47.4772 53.1206 47.5809 53.0335C47.6845 52.955 47.8228 52.9158 47.9956 52.9158C48.2288 52.9158 48.4103 52.9943 48.5398 53.1511C48.6694 53.3079 48.7342 53.5519 48.7342 53.883V55.556H48.3584V53.9092C48.3584 53.7 48.3152 53.5388 48.2288 53.4256C48.1511 53.321 48.0215 53.2687 47.84 53.2687C47.6932 53.2687 47.5636 53.3123 47.4513 53.3994C47.3476 53.4953 47.2957 53.6303 47.2957 53.8046V55.556H46.9199V51.8572Z" fill="white"></path><path fill-rule="evenodd" clip-rule="evenodd" d="M50.329 55.6212C50.1821 55.6212 50.0439 55.5951 49.9143 55.5428C49.7847 55.4993 49.6724 55.4208 49.5774 55.3076C49.491 55.1943 49.4175 55.0549 49.3571 54.8893C49.3052 54.7151 49.2793 54.5103 49.2793 54.275C49.2793 54.0311 49.3052 53.8219 49.3571 53.6477C49.4175 53.4821 49.491 53.3427 49.5774 53.2294C49.6724 53.1249 49.7847 53.0465 49.9143 52.9942C50.0439 52.9419 50.1821 52.9158 50.329 52.9158C50.4759 52.9158 50.6141 52.9419 50.7437 52.9942C50.8647 53.0465 50.9683 53.1249 51.0547 53.2294C51.1411 53.3427 51.2102 53.4821 51.2621 53.6477C51.3053 53.8219 51.3269 54.0311 51.3269 54.275V54.3665H49.681V54.5234C49.681 54.7848 49.7415 54.9765 49.8625 55.0984C49.9748 55.2204 50.1303 55.2814 50.329 55.2814C50.5018 55.2814 50.6444 55.2466 50.7567 55.1769C50.8603 55.0984 50.9467 54.9852 51.0159 54.837L51.275 55.02C51.1886 55.203 51.072 55.3468 50.9251 55.4513C50.7696 55.5646 50.5709 55.6212 50.329 55.6212ZM50.329 53.2425C50.1217 53.2425 49.9618 53.3079 49.8495 53.4386C49.7372 53.5693 49.681 53.761 49.681 54.0136V54.079H50.9251V54.0136C50.9251 53.4996 50.7264 53.2425 50.329 53.2425Z" fill="white"></path><path fill-rule="evenodd" clip-rule="evenodd" d="M54.2549 52.0663L55.3435 55.5559H54.9288L54.6307 54.5104H53.3736L53.0756 55.5559H52.6738L53.7624 52.0663H54.2549ZM53.4643 54.1836H54.527L54.1253 52.8635L54.0216 52.4192H53.9698L53.8661 52.8635L53.4643 54.1836Z" fill="white"></path><path fill-rule="evenodd" clip-rule="evenodd" d="M57.2615 55.1508H57.2226C57.1708 55.3163 57.0887 55.434 56.9764 55.5037C56.8641 55.5821 56.7302 55.6213 56.5747 55.6213C56.4192 55.6213 56.2853 55.5908 56.1729 55.5298C56.052 55.4601 55.9526 55.3686 55.8749 55.2554C55.7971 55.1421 55.7366 54.9983 55.6934 54.824C55.6589 54.6585 55.6416 54.4755 55.6416 54.2751C55.6416 54.066 55.6589 53.8787 55.6934 53.7131C55.7366 53.5388 55.7971 53.3951 55.8749 53.2818C55.9526 53.1685 56.052 53.077 56.1729 53.0073C56.2853 52.9463 56.4192 52.9158 56.5747 52.9158C56.7302 52.9158 56.8641 52.9551 56.9764 53.0335C57.0887 53.1032 57.1708 53.2252 57.2226 53.3994H57.2615V51.8572H57.6503V55.556H57.2615V55.1508ZM56.6913 55.2946C56.7691 55.2946 56.8425 55.2815 56.9116 55.2554C56.9807 55.2379 57.0412 55.2074 57.0931 55.1639C57.1449 55.1203 57.1881 55.068 57.2226 55.007C57.2486 54.946 57.2615 54.8763 57.2615 54.7979V53.7523C57.2615 53.6826 57.2486 53.6173 57.2226 53.5563C57.1881 53.4953 57.1449 53.443 57.0931 53.3994C57.0412 53.3559 56.9807 53.321 56.9116 53.2949C56.8425 53.2774 56.7691 53.2687 56.6913 53.2687C56.4753 53.2687 56.3155 53.3341 56.2118 53.4648C56.0995 53.5955 56.0433 53.7785 56.0433 54.0137V54.5365C56.0433 54.7805 56.0995 54.9678 56.2118 55.0985C56.3155 55.2292 56.4753 55.2946 56.6913 55.2946Z" fill="white"></path><path d="M59.7755 52.9803L59.3868 54.2743L59.1535 55.2284H59.1017L58.8554 54.2743L58.4666 52.9803H58.0908L58.8943 55.5551H59.3479L60.1514 52.9803H59.7755Z" fill="white"></path><path fill-rule="evenodd" clip-rule="evenodd" d="M62.1605 55.5559C61.91 55.5559 61.7847 55.4339 61.7847 55.1899V55.1377H61.7458C61.7026 55.2945 61.6205 55.4165 61.4996 55.5036C61.3873 55.582 61.2533 55.6212 61.0978 55.6212C60.8473 55.6212 60.6615 55.5559 60.5406 55.4252C60.4196 55.3032 60.3591 55.1202 60.3591 54.8763C60.3591 54.6323 60.4369 54.4406 60.5924 54.3012C60.7479 54.1618 60.9942 54.0921 61.3311 54.0921H61.7847V53.8045C61.7847 53.6128 61.7458 53.4734 61.668 53.3863C61.5816 53.2904 61.4477 53.2425 61.2663 53.2425C61.1194 53.2425 60.9985 53.2774 60.9034 53.3471C60.817 53.4081 60.7393 53.5039 60.6702 53.6346L60.4499 53.4124C60.5103 53.273 60.614 53.1554 60.7609 53.0595C60.9078 52.9637 61.0806 52.9158 61.2793 52.9158C61.573 52.9158 61.7933 52.9898 61.9402 53.138C62.0957 53.2774 62.1735 53.4865 62.1735 53.7653V55.2291H62.4327V55.5559H62.1605ZM61.1886 55.2814C61.2749 55.2814 61.3527 55.2684 61.4218 55.2422C61.4996 55.2074 61.5644 55.1681 61.6162 55.1246C61.668 55.0723 61.7112 55.0157 61.7458 54.9547C61.7717 54.8937 61.7847 54.8327 61.7847 54.7717V54.3796H61.3181C61.1194 54.3796 60.9726 54.4145 60.8775 54.4842C60.7911 54.5452 60.7479 54.641 60.7479 54.7717V54.9024C60.7479 55.0331 60.7868 55.1289 60.8646 55.1899C60.9423 55.2509 61.0503 55.2814 61.1886 55.2814Z" fill="white"></path><path d="M62.9248 55.5559V52.9811H63.3006V53.3994H63.3525C63.4043 53.2425 63.4821 53.1205 63.5857 53.0334C63.6894 52.955 63.832 52.9158 64.0134 52.9158C64.238 52.9158 64.4151 52.9942 64.5447 53.151C64.6743 53.3079 64.7391 53.5518 64.7391 53.8829V55.5559H64.3633V53.9091C64.3633 53.7 64.3244 53.5388 64.2467 53.4255C64.1603 53.3209 64.0264 53.2687 63.8449 53.2687C63.6981 53.2687 63.5728 53.3122 63.4691 53.3994C63.3568 53.4952 63.3006 53.6303 63.3006 53.8045V55.5559H62.9248Z" fill="white"></path><path d="M66.3075 55.6212C65.9878 55.6212 65.7373 55.5167 65.5559 55.3076C65.3831 55.0984 65.2967 54.7543 65.2967 54.275C65.2967 53.7871 65.3831 53.4386 65.5559 53.2294C65.7373 53.0203 65.9878 52.9158 66.3075 52.9158C66.5494 52.9158 66.7438 52.9724 66.8907 53.0857C67.0289 53.1902 67.1326 53.3297 67.2017 53.5039L66.8907 53.6738C66.8475 53.5344 66.7784 53.4298 66.6833 53.3601C66.5969 53.2904 66.4717 53.2556 66.3075 53.2556C66.1002 53.2556 65.9446 53.3166 65.841 53.4386C65.7459 53.5606 65.6984 53.7522 65.6984 54.0136V54.5364C65.6984 54.7891 65.7459 54.9765 65.841 55.0984C65.9446 55.2204 66.1002 55.2814 66.3075 55.2814C66.4717 55.2814 66.6056 55.2466 66.7092 55.1769C66.8129 55.0984 66.895 54.9852 66.9555 54.837L67.2276 55.0331C67.1499 55.2161 67.0332 55.3598 66.8777 55.4644C66.7308 55.569 66.5408 55.6212 66.3075 55.6212Z" fill="white"></path><path fill-rule="evenodd" clip-rule="evenodd" d="M68.5495 55.6212C68.4026 55.6212 68.2644 55.5951 68.1348 55.5428C68.0052 55.4993 67.8929 55.4208 67.7978 55.3076C67.7028 55.1943 67.6294 55.0549 67.5775 54.8893C67.5257 54.7151 67.4998 54.5103 67.4998 54.275C67.4998 54.0311 67.5257 53.8219 67.5775 53.6477C67.6294 53.4821 67.7028 53.3427 67.7978 53.2294C67.8929 53.1249 68.0052 53.0465 68.1348 52.9942C68.2644 52.9419 68.4026 52.9158 68.5495 52.9158C68.6964 52.9158 68.8346 52.9419 68.9642 52.9942C69.0851 53.0465 69.1888 53.1249 69.2752 53.2294C69.3616 53.3427 69.4264 53.4821 69.4696 53.6477C69.5214 53.8219 69.5474 54.0311 69.5474 54.275V54.3665H67.9015V54.5234C67.9015 54.7848 67.9577 54.9765 68.07 55.0984C68.1909 55.2204 68.3508 55.2814 68.5495 55.2814C68.7223 55.2814 68.8605 55.2466 68.9642 55.1769C69.0765 55.0984 69.1629 54.9852 69.2234 54.837L69.4826 55.02C69.4048 55.203 69.2882 55.3468 69.1327 55.4513C68.9771 55.5646 68.7827 55.6212 68.5495 55.6212ZM68.5495 53.2425C68.3421 53.2425 68.1823 53.3079 68.07 53.4386C67.9577 53.5693 67.9015 53.761 67.9015 54.0136V54.079H69.1456V54.0136C69.1456 53.4996 68.9469 53.2425 68.5495 53.2425Z" fill="white"></path><path d="M70.1172 55.5559V52.9811H70.493V53.3994H70.5448C70.5967 53.2425 70.6701 53.1205 70.7652 53.0334C70.8602 52.955 70.9984 52.9158 71.1799 52.9158C71.3354 52.9158 71.4693 52.955 71.5816 53.0334C71.6939 53.1118 71.776 53.2338 71.8278 53.3994H71.8797C71.9315 53.2425 72.0136 53.1205 72.1259 53.0334C72.2382 52.955 72.3894 52.9158 72.5795 52.9158C72.7955 52.9158 72.9683 52.9942 73.0978 53.151C73.2361 53.3079 73.3052 53.5518 73.3052 53.8829V55.5559H72.9164V53.9091C72.9164 53.7 72.8775 53.5388 72.7998 53.4255C72.722 53.3209 72.5967 53.2687 72.424 53.2687C72.2771 53.2687 72.1518 53.3122 72.0481 53.3994C71.9531 53.4952 71.9056 53.6303 71.9056 53.8045V55.5559H71.5168V53.9091C71.5168 53.7 71.4779 53.5388 71.4002 53.4255C71.3224 53.3209 71.1971 53.2687 71.0243 53.2687C70.8775 53.2687 70.7522 53.3122 70.6485 53.3994C70.5449 53.4952 70.493 53.6303 70.493 53.8045V55.5559H70.1172Z" fill="white"></path><path fill-rule="evenodd" clip-rule="evenodd" d="M74.8993 55.6212C74.7438 55.6212 74.6013 55.5951 74.4717 55.5428C74.3421 55.4993 74.2341 55.4208 74.1477 55.3076C74.0526 55.1943 73.9792 55.0549 73.9274 54.8893C73.8755 54.7151 73.8496 54.5103 73.8496 54.275C73.8496 54.0311 73.8755 53.8219 73.9274 53.6477C73.9792 53.4821 74.0526 53.3427 74.1477 53.2294C74.2341 53.1249 74.3421 53.0465 74.4717 52.9942C74.6013 52.9419 74.7438 52.9158 74.8993 52.9158C75.0462 52.9158 75.1801 52.9419 75.3011 52.9942C75.4307 53.0465 75.5343 53.1249 75.6121 53.2294C75.6985 53.3427 75.7676 53.4821 75.8194 53.6477C75.8713 53.8219 75.8972 54.0311 75.8972 54.275V54.3665H74.2514V54.5234C74.2514 54.7848 74.3075 54.9765 74.4198 55.0984C74.5321 55.2204 74.692 55.2814 74.8993 55.2814C75.0635 55.2814 75.2017 55.2466 75.314 55.1769C75.4263 55.0984 75.5127 54.9852 75.5732 54.837L75.8324 55.02C75.7546 55.203 75.638 55.3468 75.4825 55.4513C75.327 55.5646 75.1326 55.6212 74.8993 55.6212ZM74.8993 53.2425C74.692 53.2425 74.5321 53.3079 74.4198 53.4386C74.3075 53.5693 74.2514 53.761 74.2514 54.0136V54.079H75.4955V54.0136C75.4955 53.4996 75.2967 53.2425 74.8993 53.2425Z" fill="white"></path><path d="M76.4677 55.5559V52.9811H76.8435V53.3994H76.8953C76.9472 53.2425 77.0249 53.1205 77.1286 53.0334C77.2323 52.955 77.3748 52.9158 77.5563 52.9158C77.7809 52.9158 77.958 52.9942 78.0876 53.151C78.2172 53.3079 78.282 53.5518 78.282 53.8829V55.5559H77.9062V53.9091C77.9062 53.7 77.863 53.5388 77.7766 53.4255C77.6988 53.3209 77.5692 53.2687 77.3878 53.2687C77.2409 53.2687 77.1113 53.3122 76.999 53.3994C76.8953 53.4952 76.8435 53.6303 76.8435 53.8045V55.5559H76.4677Z" fill="white"></path><path d="M79.5263 55.5552C79.3881 55.5552 79.2887 55.5247 79.2283 55.4637C79.1678 55.4027 79.1375 55.3069 79.1375 55.1762V53.3072H78.7617V52.9804H78.982C79.0598 52.9804 79.1116 52.9587 79.1375 52.9151C79.1548 52.8802 79.1635 52.8236 79.1635 52.7452V52.2616H79.5134V52.9804H80.0058V53.3072H79.5134V55.2285H79.9799V55.5552H79.5263Z" fill="white"></path><path fill-rule="evenodd" clip-rule="evenodd" d="M82.494 55.6212C82.3472 55.6212 82.2089 55.5951 82.0793 55.5428C81.9497 55.4993 81.8374 55.4208 81.7424 55.3076C81.6474 55.1943 81.5739 55.0549 81.5221 54.8893C81.4703 54.7151 81.4443 54.5103 81.4443 54.275C81.4443 54.0311 81.4703 53.8219 81.5221 53.6477C81.5739 53.4821 81.6474 53.3427 81.7424 53.2294C81.8374 53.1249 81.9497 53.0465 82.0793 52.9942C82.2089 52.9419 82.3472 52.9158 82.494 52.9158C82.6409 52.9158 82.7792 52.9419 82.9087 52.9942C83.0383 53.0465 83.1506 53.1249 83.2457 53.2294C83.3321 53.3427 83.4012 53.4821 83.453 53.6477C83.5135 53.8219 83.5438 54.0311 83.5438 54.275C83.5438 54.5103 83.5135 54.7151 83.453 54.8893C83.4012 55.0549 83.3321 55.1943 83.2457 55.3076C83.1506 55.4208 83.0383 55.4993 82.9087 55.5428C82.7792 55.5951 82.6409 55.6212 82.494 55.6212ZM82.494 55.2814C82.6928 55.2814 82.8483 55.2204 82.9606 55.0984C83.0729 54.9765 83.1291 54.7891 83.1291 54.5364V54.0136C83.1291 53.7522 83.0729 53.5606 82.9606 53.4386C82.8483 53.3166 82.6928 53.2556 82.494 53.2556C82.2867 53.2556 82.1269 53.3166 82.0145 53.4386C81.9022 53.5606 81.8461 53.7522 81.8461 54.0136V54.5364C81.8461 54.7891 81.9022 54.9765 82.0145 55.0984C82.1269 55.2204 82.2867 55.2814 82.494 55.2814Z" fill="white"></path><path d="M84.2176 53.3079H83.8418V52.9812H84.2176V52.3408C84.2176 52.1752 84.2565 52.0532 84.3343 51.9748C84.412 51.8964 84.5373 51.8572 84.7101 51.8572H85.0859V52.197H84.5934V52.9812H85.0859V53.3079H84.5934V55.556H84.2176V53.3079Z" fill="white"></path><path d="M87.509 55.6222C87.2585 55.6222 87.0425 55.5699 86.8611 55.4654C86.671 55.3608 86.5155 55.2127 86.3945 55.021L86.6796 54.7857C86.7833 54.9426 86.9043 55.0645 87.0425 55.1517C87.1721 55.2388 87.3276 55.2824 87.509 55.2824C87.9756 55.2824 88.2088 55.0602 88.2088 54.6158C88.2088 54.4328 88.1656 54.2934 88.0793 54.1976C87.9929 54.1017 87.846 54.0277 87.6386 53.9754L87.3794 53.91C87.0684 53.8403 86.8438 53.7271 86.7056 53.5702C86.5587 53.4221 86.4852 53.213 86.4852 52.9429C86.4852 52.6379 86.5803 52.407 86.7703 52.2502C86.9691 52.0846 87.2239 52.0018 87.535 52.0018C87.7769 52.0018 87.9799 52.0498 88.144 52.1456C88.3082 52.2327 88.4508 52.3721 88.5717 52.5638L88.2866 52.773C88.2002 52.6335 88.0965 52.529 87.9756 52.4593C87.8633 52.3896 87.7121 52.3547 87.522 52.3547C87.3146 52.3547 87.1548 52.4026 87.0425 52.4985C86.9302 52.5856 86.874 52.7337 86.874 52.9429C86.874 53.1171 86.9215 53.2478 87.0166 53.335C87.103 53.4221 87.2455 53.4918 87.4442 53.5441L87.7034 53.6094C87.8676 53.6443 88.0058 53.6922 88.1181 53.7532C88.2304 53.8055 88.3212 53.8708 88.3903 53.9492C88.468 54.0277 88.5199 54.1235 88.5458 54.2368C88.5803 54.3413 88.5976 54.4677 88.5976 54.6158C88.5976 54.9469 88.5026 55.1952 88.3125 55.3608C88.1138 55.5351 87.846 55.6222 87.509 55.6222Z" fill="white"></path><path d="M90.0235 55.6212C89.7125 55.6212 89.4663 55.5167 89.2848 55.3076C89.1034 55.0984 89.0127 54.7543 89.0127 54.275C89.0127 53.7871 89.1034 53.4386 89.2848 53.2294C89.4663 53.0203 89.7125 52.9158 90.0235 52.9158C90.2654 52.9158 90.4598 52.9724 90.6067 53.0857C90.7536 53.1902 90.8572 53.3297 90.9177 53.5039L90.6067 53.6738C90.5635 53.5344 90.4944 53.4298 90.3994 53.3601C90.313 53.2904 90.1877 53.2556 90.0235 53.2556C89.8162 53.2556 89.665 53.3166 89.57 53.4386C89.4663 53.5606 89.4144 53.7522 89.4144 54.0136V54.5364C89.4144 54.7891 89.4663 54.9765 89.57 55.0984C89.665 55.2204 89.8162 55.2814 90.0235 55.2814C90.1963 55.2814 90.3302 55.2466 90.4253 55.1769C90.5289 55.0984 90.611 54.9852 90.6715 54.837L90.9436 55.0331C90.8659 55.2161 90.7536 55.3598 90.6067 55.4644C90.4512 55.569 90.2568 55.6212 90.0235 55.6212Z" fill="white"></path><path d="M91.4227 52.9819H91.8114V55.5567H91.4227V52.9819ZM91.6171 52.3676C91.4615 52.3676 91.3838 52.2979 91.3838 52.1585V52.0801C91.3838 51.9407 91.4615 51.871 91.6171 51.871C91.7726 51.871 91.8503 51.9407 91.8503 52.0801V52.1585C91.8503 52.2979 91.7726 52.3676 91.6171 52.3676Z" fill="white"></path><path fill-rule="evenodd" clip-rule="evenodd" d="M93.4185 55.6212C93.2717 55.6212 93.1334 55.5951 93.0038 55.5428C92.8742 55.4993 92.7662 55.4208 92.6798 55.3076C92.5848 55.1943 92.5114 55.0549 92.4595 54.8893C92.4077 54.7151 92.3818 54.5103 92.3818 54.275C92.3818 54.0311 92.4077 53.8219 92.4595 53.6477C92.5114 53.4821 92.5848 53.3427 92.6798 53.2294C92.7662 53.1249 92.8742 53.0465 93.0038 52.9942C93.1334 52.9419 93.2717 52.9158 93.4185 52.9158C93.574 52.9158 93.7123 52.9419 93.8332 52.9942C93.9542 53.0465 94.0579 53.1249 94.1443 53.2294C94.2307 53.3427 94.2998 53.4821 94.3516 53.6477C94.3948 53.8219 94.4164 54.0311 94.4164 54.275V54.3665H92.7835V54.5234C92.7835 54.7848 92.8397 54.9765 92.952 55.0984C93.0643 55.2204 93.2198 55.2814 93.4185 55.2814C93.5913 55.2814 93.7339 55.2466 93.8462 55.1769C93.9585 55.0984 94.0449 54.9852 94.1054 54.837L94.3646 55.02C94.2868 55.203 94.1702 55.3468 94.0147 55.4513C93.8591 55.5646 93.6604 55.6212 93.4185 55.6212ZM93.4185 53.2425C93.2198 53.2425 93.0643 53.3079 92.952 53.4386C92.8397 53.5693 92.7835 53.761 92.7835 54.0136V54.079H94.0147V54.0136C94.0147 53.4996 93.8159 53.2425 93.4185 53.2425Z" fill="white"></path><path d="M95 55.5559V52.9811H95.3758V53.3994H95.4277C95.4795 53.2425 95.5573 53.1205 95.6609 53.0334C95.7646 52.955 95.9028 52.9158 96.0756 52.9158C96.3089 52.9158 96.4903 52.9942 96.6199 53.151C96.7495 53.3079 96.8143 53.5518 96.8143 53.8829V55.5559H96.4385V53.9091C96.4385 53.7 96.3953 53.5388 96.3089 53.4255C96.2225 53.3209 96.0929 53.2687 95.9201 53.2687C95.7646 53.2687 95.635 53.3122 95.5313 53.3994C95.4277 53.4952 95.3758 53.6303 95.3758 53.8045V55.5559H95Z" fill="white"></path><path d="M98.382 55.6212C98.0623 55.6212 97.8118 55.5167 97.6303 55.3076C97.4489 55.0984 97.3582 54.7543 97.3582 54.275C97.3582 53.7871 97.4489 53.4386 97.6303 53.2294C97.8118 53.0203 98.0623 52.9158 98.382 52.9158C98.6239 52.9158 98.814 52.9724 98.9522 53.0857C99.0991 53.1902 99.2071 53.3297 99.2762 53.5039L98.9652 53.6738C98.922 53.5344 98.8528 53.4298 98.7578 53.3601C98.6628 53.2904 98.5375 53.2556 98.382 53.2556C98.1746 53.2556 98.0191 53.3166 97.9154 53.4386C97.8204 53.5606 97.7729 53.7522 97.7729 54.0136V54.5364C97.7729 54.7891 97.8204 54.9765 97.9154 55.0984C98.0191 55.2204 98.1746 55.2814 98.382 55.2814C98.5461 55.2814 98.68 55.2466 98.7837 55.1769C98.8788 55.0984 98.9565 54.9852 99.017 54.837L99.3021 55.0331C99.2243 55.2161 99.1077 55.3598 98.9522 55.4644C98.7967 55.569 98.6066 55.6212 98.382 55.6212Z" fill="white"></path><path fill-rule="evenodd" clip-rule="evenodd" d="M100.624 55.6212C100.468 55.6212 100.326 55.5951 100.196 55.5428C100.067 55.4993 99.9587 55.4208 99.8723 55.3076C99.7773 55.1943 99.7038 55.0549 99.652 54.8893C99.6002 54.7151 99.5742 54.5103 99.5742 54.275C99.5742 54.0311 99.6002 53.8219 99.652 53.6477C99.7038 53.4821 99.7773 53.3427 99.8723 53.2294C99.9587 53.1249 100.067 53.0465 100.196 52.9942C100.326 52.9419 100.468 52.9158 100.624 52.9158C100.771 52.9158 100.905 52.9419 101.026 52.9942C101.155 53.0465 101.263 53.1249 101.35 53.2294C101.427 53.3427 101.492 53.4821 101.544 53.6477C101.596 53.8219 101.622 54.0311 101.622 54.275V54.3665H99.976V54.5234C99.976 54.7848 100.032 54.9765 100.144 55.0984C100.257 55.2204 100.417 55.2814 100.624 55.2814C100.797 55.2814 100.935 55.2466 101.039 55.1769C101.151 55.0984 101.237 54.9852 101.298 54.837L101.557 55.02C101.479 55.203 101.363 55.3468 101.207 55.4513C101.052 55.5646 100.857 55.6212 100.624 55.6212ZM100.624 53.2425C100.417 53.2425 100.257 53.3079 100.144 53.4386C100.032 53.5693 99.976 53.761 99.976 54.0136V54.079H101.22V54.0136C101.22 53.4996 101.021 53.2425 100.624 53.2425Z" fill="white"></path><path d="M102.905 55.6212C102.689 55.6212 102.507 55.5777 102.36 55.4905C102.205 55.4034 102.075 55.2814 101.972 55.1246L102.231 54.9155C102.326 55.0375 102.425 55.1333 102.529 55.203C102.633 55.264 102.758 55.2945 102.905 55.2945C103.052 55.2945 103.168 55.2596 103.255 55.1899C103.341 55.1115 103.384 55.0026 103.384 54.8632C103.384 54.7499 103.358 54.6584 103.307 54.5887C103.246 54.519 103.142 54.4711 102.996 54.4449L102.801 54.4057C102.551 54.3622 102.365 54.2838 102.244 54.1705C102.123 54.0659 102.062 53.9004 102.062 53.6738C102.062 53.5431 102.084 53.4298 102.127 53.334C102.162 53.2382 102.218 53.1597 102.296 53.0987C102.365 53.0378 102.451 52.9942 102.555 52.968C102.65 52.9332 102.758 52.9158 102.879 52.9158C103.069 52.9158 103.233 52.9506 103.371 53.0203C103.501 53.09 103.613 53.1902 103.708 53.3209L103.462 53.5431C103.41 53.4647 103.337 53.395 103.242 53.334C103.147 53.273 103.026 53.2425 102.879 53.2425C102.576 53.2425 102.425 53.3819 102.425 53.6607C102.425 53.7827 102.46 53.8742 102.529 53.9352C102.589 53.9962 102.693 54.0398 102.84 54.0659L103.034 54.1051C103.294 54.1487 103.479 54.2271 103.592 54.3404C103.704 54.4624 103.76 54.6236 103.76 54.824C103.76 55.0679 103.687 55.264 103.54 55.4121C103.393 55.5515 103.181 55.6212 102.905 55.6212Z" fill="white"></path><path d="M78.5674 43.3486H78.6711C78.8784 43.3486 79.021 43.231 79.021 42.9566C79.021 42.6821 78.8784 42.5645 78.6711 42.5645H78.5674C78.3601 42.5645 78.2305 42.6821 78.2305 42.9566C78.2305 43.231 78.3601 43.3486 78.5674 43.3486Z" fill="white"></path><path d="M77.4788 43.3486H77.5825C77.7898 43.3486 77.9324 43.231 77.9324 42.9566C77.9324 42.6821 77.7898 42.5645 77.5825 42.5645H77.4788C77.2715 42.5645 77.1289 42.6821 77.1289 42.9566C77.1289 43.231 77.2715 43.3486 77.4788 43.3486Z" fill="white"></path><path fill-rule="evenodd" clip-rule="evenodd" d="M95.6737 45.6613C95.7125 45.9357 95.7384 46.1971 95.7384 46.3932C95.7384 47.2035 95.3885 47.6348 94.7147 47.6348C94.1315 47.6348 93.8075 47.3603 93.7168 46.8245H93.6779C93.6001 47.3603 93.328 47.6348 92.9133 47.6348C92.6412 47.6348 92.382 47.5433 92.0061 47.3081L91.8247 47.2035C91.5526 47.478 91.2286 47.5564 90.6972 47.5564H90.6195C89.9715 47.5564 89.6346 47.3211 89.505 46.8245H89.4791C89.4143 47.3996 89.168 47.6348 88.7404 47.6348C88.2738 47.6348 88.0017 47.3603 87.911 46.8245H87.8721C87.7943 47.3603 87.5222 47.6348 87.1075 47.6348C86.8354 47.6348 86.5762 47.5433 86.2003 47.3081L86.0189 47.2035C85.7468 47.478 85.4228 47.5564 84.8914 47.5564H79.5003C78.6709 47.5564 78.334 47.2166 78.334 46.4847V46.4062H78.2951C78.1655 46.916 77.8675 47.1251 77.4009 47.1251C76.7659 47.1251 76.416 46.7722 76.416 46.1579C76.416 45.5306 76.7789 45.1254 77.5694 44.7072L78.2951 44.3151V43.9491H78.9172V46.3278C78.9172 46.6676 79.0727 46.7722 79.4355 46.7722H85.1895C85.5783 46.7722 85.7468 46.6676 85.9282 46.3017L86.2003 45.7266L86.7187 45.988L86.4077 46.6023L86.4595 46.6284C86.7317 46.7853 86.9779 46.8637 87.2371 46.8637C87.6518 46.8637 87.8332 46.6807 87.8332 46.2233V45.7266H88.4294V46.2233C88.4294 46.6676 88.546 46.8506 88.857 46.8506H88.9737C89.2588 46.8506 89.3884 46.6676 89.3884 46.2233V45.4521H89.9845V46.2233C89.9845 46.6023 90.1659 46.7722 90.5288 46.7722H90.9953C91.3841 46.7722 91.5526 46.6676 91.734 46.3017L92.0061 45.7266L92.5245 45.988L92.2135 46.6023L92.2524 46.6284C92.5245 46.7853 92.7837 46.8637 93.0429 46.8637C93.4576 46.8637 93.639 46.6807 93.639 46.2233V45.7266H94.2352V46.2233C94.2352 46.6676 94.3648 46.8506 94.6628 46.8506H94.7665C95.0257 46.8506 95.1553 46.7068 95.1553 46.3932C95.1553 46.2625 95.1423 46.0403 95.0905 45.7658L95.0386 45.3868L95.6218 45.3084L95.6737 45.6613ZM78.2951 44.9424L77.6731 45.2561C77.1936 45.5044 76.9733 45.6743 76.9733 45.9619C76.9733 46.2363 77.1288 46.3409 77.5435 46.3409C78.1007 46.3409 78.2951 46.2233 78.2951 45.8704V44.9424Z" fill="white"></path><path d="M98.4213 43.6631H97.9547C97.6437 43.6631 97.4752 43.5716 97.4752 43.3886C97.4752 43.271 97.5789 43.1795 97.7474 43.1795C97.877 43.1795 97.9936 43.2449 98.0843 43.3364L98.3824 42.9704C98.2398 42.7874 97.9806 42.6698 97.7474 42.6698C97.3586 42.6698 97.0735 42.9443 97.0735 43.3102C97.0735 43.4409 97.1124 43.5847 97.2031 43.6762L97.1901 43.7023H96.918V44.1859H98.4213V43.6631Z" fill="white"></path><path fill-rule="evenodd" clip-rule="evenodd" d="M103.851 46.6416V46.916L103.333 47.6741L101.493 47.1513C101.285 47.4388 101.013 47.5565 100.56 47.5565H98.9007C98.6675 48.6151 97.9417 49.2163 96.7236 49.2163H96.2959V48.4321H96.6847C97.6437 48.4321 98.175 48.0923 98.3564 47.5565H97.527C96.7884 47.5565 96.3607 47.1252 96.3607 46.3802C96.3607 45.4914 96.918 44.7987 97.6826 44.7987C98.4731 44.7987 98.9655 45.5306 98.9785 46.7723H100.715C101.065 46.7723 101.182 46.6285 101.324 46.2625L101.519 45.7659C101.739 45.2039 102.076 44.8248 102.685 44.8248C103.424 44.8248 103.851 45.5045 103.851 46.6416ZM98.4083 46.6416C98.4083 46.0011 98.0843 45.5829 97.6178 45.5829C97.2031 45.5829 96.9309 45.8704 96.9309 46.2887C96.9309 46.6285 97.1512 46.7723 97.553 46.7723H98.4083V46.6416ZM103.255 46.6416C103.255 46.0011 102.996 45.596 102.555 45.596C102.231 45.596 102.05 45.8051 101.92 46.1318L101.817 46.4324L103.255 46.8376V46.6416Z" fill="white"></path><path d="M2.91061 49.8046H2.80693C2.59958 49.8046 2.45703 49.9222 2.45703 50.1967C2.45703 50.4581 2.59958 50.5888 2.80693 50.5888H2.91061C3.11796 50.5888 3.26051 50.4581 3.26051 50.1967C3.26051 49.9222 3.11796 49.8046 2.91061 49.8046Z" fill="white"></path><path d="M1.82174 49.8046H1.71807C1.51072 49.8046 1.36816 49.9222 1.36816 50.1967C1.36816 50.4581 1.51072 50.5888 1.71807 50.5888H1.82174C2.01613 50.5888 2.17165 50.4581 2.17165 50.1967C2.17165 49.9222 2.01613 49.8046 1.82174 49.8046Z" fill="white"></path><path fill-rule="evenodd" clip-rule="evenodd" d="M20.9626 42.4999H21.6106V46.2248C21.6106 47.1266 21.2607 47.5579 20.4183 47.5579H19.7315C19.3038 47.5579 18.8632 47.4534 18.5133 47.2181C18.1634 47.4534 17.7617 47.5579 17.347 47.5579H10.7636C10.0767 47.5579 9.68797 47.3096 9.57133 46.7607H9.53245C9.42878 47.3357 9.15663 47.5579 8.5605 47.5579H8.41795C7.91253 47.5579 7.65334 47.4142 7.43304 47.0351L7.39416 47.0482V47.5579H6.5518C5.94271 47.5579 5.55392 47.3357 5.37249 46.9567H5.33361C5.2429 47.2704 5.08739 47.4534 4.8282 47.5187C4.69861 48.5905 3.80441 49.2178 2.37888 49.2178C0.992223 49.2178 0.175781 48.5382 0.175781 47.4142C0.175781 46.9959 0.292416 46.4731 0.499766 46.0026L1.01814 46.1595C0.849669 46.5254 0.720076 46.9567 0.720076 47.2704C0.720076 47.9762 1.25141 48.3813 2.14561 48.3813H2.61214C3.5193 48.3813 4.11543 48.0677 4.25799 47.5449L2.71582 47.3227V46.5254L3.57114 46.6561C4.03768 46.7345 4.45238 46.7737 4.73748 46.7737C5.02259 46.7737 5.1781 46.7607 5.3077 46.6953C5.29474 46.6169 5.28178 46.5385 5.28178 46.447C5.28178 45.9373 5.60576 45.506 6.25373 45.1008L6.62955 44.8655H7.32936L7.83477 46.264C7.99029 46.6692 8.10692 46.7737 8.41795 46.7737H8.93632C9.3251 46.7737 9.50654 46.5908 9.50654 46.2248V42.4999H10.1415V46.2248C10.1415 46.6038 10.323 46.7737 10.6858 46.7737H17.9172L17.9301 46.7476L17.0878 45.702V44.8917C17.5154 44.6826 18.0208 44.5649 18.4874 44.5649C19.4205 44.5649 19.9 44.9309 19.9 45.6236C19.9 46.1202 19.6926 46.3163 19.1483 46.7607L19.1613 46.7737H20.4183C20.8201 46.7737 20.9626 46.6038 20.9626 46.2248V42.4999ZM7.30344 46.7737C7.26456 46.6953 7.23864 46.6038 7.21272 46.5254L6.84986 45.5321L6.43516 45.7412C6.0723 45.9373 5.81311 46.1333 5.81311 46.3686C5.81311 46.6561 6.03342 46.7737 6.44812 46.7737H7.30344ZM18.7855 46.4339C19.1483 46.1333 19.3297 46.0026 19.3297 45.7674C19.3297 45.4798 19.0576 45.3491 18.4744 45.3491C18.2023 45.3491 17.9042 45.3883 17.6321 45.4667V45.4929L18.5781 46.6169L18.7855 46.4339Z" fill="white"></path><path d="M22.5566 47.5579H23.1917V42.4999H22.5566V47.5579Z" fill="white"></path><path d="M26.9761 44.578C26.4318 44.578 25.8746 44.9047 25.6543 45.5975L26.1856 45.9111C26.367 45.5713 26.6003 45.3622 26.9891 45.3622C27.4816 45.3622 27.8055 45.7674 27.8185 46.447H26.3541C25.4599 46.447 25.0322 46.9175 25.0322 47.9239V49.6622H25.6672V47.937C25.6672 47.4272 25.8487 47.2443 26.3541 47.2443H28.3887V46.5123C28.3887 45.2968 27.8574 44.578 26.9761 44.578Z" fill="white"></path><path d="M39.3907 43.5048H39.4943C39.7017 43.5048 39.8442 43.3871 39.8442 43.1127C39.8442 42.8382 39.7017 42.7206 39.4943 42.7206H39.3907C39.1833 42.7206 39.0537 42.8382 39.0537 43.1127C39.0537 43.3871 39.1833 43.5048 39.3907 43.5048Z" fill="white"></path><path d="M40.4795 43.5048H40.5832C40.7905 43.5048 40.9331 43.3871 40.9331 43.1127C40.9331 42.8382 40.7905 42.7206 40.5832 42.7206H40.4795C40.2851 42.7206 40.1426 42.8382 40.1426 43.1127C40.1426 43.3871 40.2851 43.5048 40.4795 43.5048Z" fill="white"></path><path d="M43.6807 44.538H43.7844C43.9917 44.538 44.1343 44.4203 44.1343 44.1459C44.1343 43.8714 43.9917 43.7538 43.7844 43.7538H43.6807C43.4733 43.7538 43.3438 43.8714 43.3438 44.1459C43.3438 44.4203 43.4733 44.538 43.6807 44.538Z" fill="white"></path><path d="M42.5918 44.538H42.6955C42.9029 44.538 43.0454 44.4203 43.0454 44.1459C43.0454 43.8714 42.9029 43.7538 42.6955 43.7538H42.5918C42.3845 43.7538 42.2549 43.8714 42.2549 44.1459C42.2549 44.4203 42.3845 44.538 42.5918 44.538Z" fill="white"></path><path fill-rule="evenodd" clip-rule="evenodd" d="M44.9764 46.7737C45.3523 46.7737 45.5466 46.5908 45.5466 46.2248V42.4999H46.1817V46.2248C46.1817 46.6038 46.3501 46.7737 46.726 46.7737H47.2054C47.5942 46.7737 47.7497 46.6038 47.7497 46.2248V42.4999H48.3848V46.2248C48.3848 47.1266 48.0478 47.5579 47.2054 47.5579H46.8037C46.1169 47.5579 45.7281 47.3096 45.6114 46.7607H45.5726C45.4559 47.3357 45.1967 47.5579 44.6006 47.5579L44.1341 47.5449V47.5579C43.4602 47.5579 43.0973 47.3096 42.9807 46.7607H42.9418C42.8252 47.3357 42.553 47.5579 41.9439 47.5579H41.3349C40.8554 47.5579 40.4018 47.4534 40 47.1789C39.6112 47.4534 39.1577 47.5579 38.6782 47.5579H32.5225C31.9134 47.5579 31.6412 47.375 31.3691 46.7868L31.3302 46.7999C31.2524 47.3357 30.9933 47.5579 30.4101 47.5579H29.7751C29.3085 47.5579 29.0234 47.3096 29.0234 46.7868V46.2771H29.6325V46.7737H30.5656C31.0581 46.7737 31.2006 46.7084 31.2006 46.4731C31.2006 46.3686 31.1617 46.2379 31.071 45.9895L30.436 44.199L31.084 43.9637L31.7838 45.9242C32.03 46.6038 32.1855 46.7737 32.5095 46.7737H39.3132L39.3261 46.7345C38.9114 46.3816 38.7171 45.9634 38.7171 45.4798C38.7171 44.7087 39.2354 44.0683 40 44.0683C40.7646 44.0683 41.296 44.7087 41.296 45.4798C41.296 45.9634 41.0886 46.3816 40.6739 46.7345L40.6869 46.7737H42.3457C42.7215 46.7737 42.9029 46.5908 42.9029 46.2248V45.1792H43.4991V46.2248C43.4991 46.6038 43.6805 46.7737 44.0434 46.7737H44.9764ZM40.7387 45.5844C40.7387 45.14 40.4536 44.8525 40.0389 44.8525H39.9612C39.5594 44.8525 39.2613 45.14 39.2613 45.5844C39.2613 46.0288 39.5465 46.3555 40 46.6169C40.4666 46.3555 40.7387 46.0288 40.7387 45.5844Z" fill="white"></path><path d="M54.0352 44.8772H54.1389C54.3462 44.8772 54.4888 44.7465 54.4888 44.4851C54.4888 44.1976 54.3462 44.08 54.1389 44.08H54.0352C53.8278 44.08 53.6982 44.1976 53.6982 44.4851C53.6982 44.7465 53.8278 44.8772 54.0352 44.8772Z" fill="white"></path><path d="M52.9466 44.8772H53.0503C53.2576 44.8772 53.4002 44.7465 53.4002 44.4851C53.4002 44.1976 53.2576 44.08 53.0503 44.08H52.9466C52.7392 44.08 52.5967 44.1976 52.5967 44.4851C52.5967 44.7465 52.7392 44.8772 52.9466 44.8772Z" fill="white"></path><path d="M58.1948 48.1971H58.0911C57.8838 48.1971 57.7412 48.3148 57.7412 48.6023C57.7412 48.8637 57.8838 48.9944 58.0911 48.9944H58.1948C58.4021 48.9944 58.5447 48.8637 58.5447 48.6023C58.5447 48.3148 58.4021 48.1971 58.1948 48.1971Z" fill="white"></path><path d="M57.093 48.1971H56.9893C56.7949 48.1971 56.6523 48.3148 56.6523 48.6023C56.6523 48.8637 56.7949 48.9944 56.9893 48.9944H57.093C57.3003 48.9944 57.4429 48.8637 57.4429 48.6023C57.4429 48.3148 57.3003 48.1971 57.093 48.1971Z" fill="white"></path><path fill-rule="evenodd" clip-rule="evenodd" d="M72.2429 42.4982H72.8909V46.2231C72.8909 47.125 72.541 47.5563 71.6986 47.5563H71.2969C70.9081 47.5563 70.6359 47.4779 70.3897 47.2165L70.1694 47.5563H62.1605C61.9402 48.6149 61.2015 49.2162 59.9833 49.2162H59.5557V48.432H59.9574C60.9034 48.432 61.4348 48.0921 61.6162 47.5563H60.7868C60.0611 47.5563 59.6205 47.125 59.6205 46.38C59.6205 45.4912 60.1777 44.7985 60.9423 44.7985C61.7328 44.7985 62.2253 45.5304 62.2383 46.7721H70.0916V46.5107C70.0916 45.8572 69.7677 45.5696 69.0679 45.5696H63.0417V44.0927L66.2427 42.4198V43.2171L63.3268 44.7462V44.7855H69.0679C70.1694 44.7855 70.6619 45.3213 70.6619 46.4715V46.6152C70.8692 46.7459 71.0506 46.7721 71.2969 46.7721H71.6986C72.1003 46.7721 72.2429 46.6022 72.2429 46.2231V42.4982ZM61.668 46.6414C61.668 46.001 61.3441 45.5827 60.8775 45.5827C60.4628 45.5827 60.1907 45.8703 60.1907 46.2885C60.1907 46.6152 60.411 46.7721 60.8127 46.7721H61.668V46.6414Z" fill="white"></path><path d="M73.8369 47.5579H74.4719V42.4999H73.8369V47.5579Z" fill="white"></path><path d="M52.3371 46.7984C51.1966 46.7984 50.7171 46.5631 50.7171 46.0011C50.7171 45.7267 50.8079 45.4261 50.9893 45.0601L50.458 44.8902C50.2765 45.3476 50.1729 45.7659 50.1729 46.1318C50.1729 47.2428 50.8467 47.6349 52.7906 47.6349H53.957C55.4992 47.6349 55.9916 47.4388 56.1212 46.7461H56.1601C56.2897 47.2951 56.6525 47.5565 57.3135 47.5565H57.6245C58.5965 47.5565 59.05 47.1382 59.05 46.2756C59.05 46.0665 59.0241 45.7659 58.9723 45.3999L58.8816 44.7987L58.2854 44.8902L58.3891 45.4914C58.4539 45.8966 58.4798 46.1188 58.4798 46.2756C58.4798 46.6546 58.2466 46.7723 57.6245 46.7723H57.2616C56.8599 46.7723 56.6914 46.6024 56.6914 46.2233V45.1777H56.0953V46.2233C56.0953 46.6808 55.7713 46.7984 54.4624 46.7984H52.3371Z" fill="white"></path></svg> 