<?xml version="1.0" encoding="UTF-8"?> <svg xmlns="http://www.w3.org/2000/svg" width="100" height="100" viewBox="0 0 100 100" fill="none"><path fill-rule="evenodd" clip-rule="evenodd" d="M65.2682 6.445L66.0126 5.73446L66.7569 5.05775C68.6517 3.33216 70.8848 2.01259 73.321 1.13288C75.7233 0.286996 78.2947 -0.0851922 80.8324 0.0163134C83.4039 0.151654 85.9077 0.760685 88.2084 1.84341C90.5431 2.8923 92.607 4.44872 94.3326 6.30965C96.0582 8.17059 97.4116 10.3699 98.2913 12.7383C99.2049 15.1068 99.6109 17.6444 99.5432 20.1821C99.4417 22.7197 98.8665 25.2235 97.8515 27.5243C96.8364 29.8251 95.3477 31.9229 93.5544 33.6823C93.5318 33.6823 93.5206 33.6823 93.5206 33.6823C93.5206 33.6823 93.5093 33.6936 93.4867 33.7161C92.404 34.765 91.2198 35.6786 89.9002 36.423C89.2461 36.8064 88.5694 37.1561 87.8701 37.4719C87.6896 37.5395 87.5205 37.6185 87.3626 37.7087L86.8212 37.9117L86.2798 38.0809L85.7385 38.2501C82.9302 39.1974 58.2305 47.4194 58.2305 47.4194L57.1816 47.7577L56.6402 47.9269C56.4711 47.9946 56.268 48.0284 56.065 48.0961C55.6929 48.2314 55.3207 48.2653 54.9485 48.3668C54.7455 48.3893 54.5425 48.4119 54.3395 48.4344L54.0688 48.5021C53.9785 48.5021 53.877 48.5021 53.7642 48.5021L53.6627 48.536C53.347 48.5585 53.0311 48.5698 52.7153 48.5698H52.6138C52.4108 48.5698 52.2078 48.5585 52.0048 48.536L51.4296 48.5021C49.8732 48.3329 48.3168 47.8931 46.9295 47.1825C46.3882 46.9119 45.9145 46.5735 45.407 46.2352C45.1363 46.0321 44.8656 45.8179 44.5949 45.5923L44.4934 45.5246C44.4257 45.4569 44.3468 45.3893 44.2566 45.3216L44.0536 45.1186L43.9521 45.0171C43.7265 44.8141 43.5235 44.6111 43.343 44.4081L43.2415 44.3066C42.1926 43.1223 41.3467 41.7351 40.8054 40.2463C40.264 38.7576 39.9933 37.1673 40.0272 35.6109C40.061 34.0207 40.3994 32.4304 41.0084 30.9755C41.6174 29.5206 42.4971 28.1672 43.6137 27.0168L65.2682 6.445ZM42.4971 31.6184C41.9896 32.8703 41.6851 34.2913 41.6513 35.6448C41.6513 37.032 41.8543 38.4192 42.328 39.705C42.8017 40.9569 43.5122 42.1749 44.4257 43.19L44.5273 43.2915C44.7077 43.4945 44.8882 43.675 45.0686 43.8329L45.1701 43.9682L45.204 44.002C45.3167 44.0923 45.4295 44.1825 45.5423 44.2727L45.7791 44.4757C45.8919 44.5885 46.0047 44.6787 46.1175 44.7464C46.6927 45.1863 47.1664 45.4569 47.6401 45.6938H47.6739V45.7276C48.8243 46.3028 50.1101 46.7088 51.565 46.878L52.1063 46.9119C52.2642 46.9119 52.4221 46.9119 52.58 46.9119H52.6815C52.9522 46.9119 53.2342 46.9006 53.5274 46.878H53.6289C53.674 46.878 53.7078 46.878 53.7304 46.878C53.7642 46.878 53.8319 46.878 53.8319 46.878L54.1026 46.8442C54.1703 46.8216 54.2379 46.8104 54.3056 46.8104C54.4184 46.7878 54.5199 46.7765 54.6101 46.7765C54.7004 46.754 54.8018 46.7314 54.9146 46.7088C55.1515 46.6412 55.3883 46.6073 55.5575 46.5397H55.5913C55.659 46.5171 55.7267 46.4946 55.7944 46.472C55.9071 46.4495 56.0086 46.4156 56.0989 46.3705L56.6402 46.2013L57.6891 45.863C57.926 45.7615 82.4226 37.6072 85.231 36.6936L85.7385 36.5583L86.2122 36.3553L86.7197 36.1861C86.7648 36.1636 86.8212 36.141 86.8889 36.1184C87.0016 36.0733 87.1032 36.0282 87.1934 35.9831C87.825 35.6899 88.4453 35.3741 89.0543 35.0357C90.2386 34.3252 91.3213 33.4793 92.3363 32.5319L92.3702 32.4981C94.0281 30.9078 95.4153 28.9454 96.3289 26.8814C97.2424 24.7837 97.7838 22.449 97.8515 20.1482C97.9191 17.8474 97.547 15.479 96.7349 13.3474C95.9567 11.1819 94.671 9.15181 93.1145 7.42621C91.5243 5.73446 89.5957 4.31338 87.4979 3.33216C85.4001 2.35094 83.0655 1.77574 80.7309 1.67423C78.3963 1.57273 76.0278 1.91108 73.8285 2.72313C71.663 3.50134 69.5653 4.7194 67.8397 6.27582L67.1291 6.95252L66.3848 7.66306L44.7641 28.201C43.8167 29.1822 43.0385 30.3665 42.4971 31.6184Z" fill="#56499E"></path><path fill-rule="evenodd" clip-rule="evenodd" d="M68.0086 8.4743L68.6176 7.8991L69.2266 7.3239C70.8169 5.90282 72.7116 4.78627 74.7079 4.07573C76.738 3.33135 78.8696 3.02684 81.0013 3.12834C83.1329 3.22985 85.2307 3.73737 87.1593 4.65092C89.0879 5.53064 90.8135 6.81638 92.2684 8.37279C93.6895 9.92921 94.8398 11.7563 95.5842 13.7526C96.3286 15.715 96.6669 17.8466 96.5993 19.9444C96.5316 22.076 96.0579 24.14 95.212 26.0686C94.3323 27.9972 93.1143 29.7566 91.5917 31.2115C91.5691 31.2341 91.5578 31.2454 91.5578 31.2454C90.6443 32.1251 89.6631 32.8695 88.5803 33.5123C88.0164 33.8281 87.4412 34.1214 86.8547 34.392C86.7194 34.4597 86.5728 34.5161 86.4149 34.5612L85.975 34.7304L85.5352 34.8996L85.0953 35.0349C82.7269 35.8131 62.1212 42.6817 62.1212 42.6817L61.2415 42.9523L60.8017 43.1215C60.6663 43.1553 60.4971 43.223 60.328 43.2569C60.0234 43.3584 59.6851 43.3922 59.3806 43.4599C59.2227 43.505 59.0648 43.5275 58.9069 43.5275L58.6701 43.5614C58.5798 43.5839 58.4896 43.5952 58.3994 43.5952H58.2979C58.0497 43.6178 57.7903 43.629 57.5196 43.629H57.4181C57.2603 43.629 57.1023 43.629 56.9444 43.629L56.4369 43.5952C55.1512 43.426 53.8654 43.0877 52.7151 42.4786C52.2752 42.2418 51.8353 41.9711 51.4293 41.7004C51.2038 41.5425 50.9782 41.3621 50.7526 41.1591L50.6511 41.0914C50.606 41.0463 50.5496 41.0012 50.4819 40.9561L50.3128 40.7869L50.2113 40.6854C50.0308 40.5275 49.8616 40.3583 49.7037 40.1779L49.6022 40.0763C48.7225 39.0951 48.0458 37.9447 47.6059 36.6928C47.1323 35.4748 46.9292 34.1552 46.9631 32.8356C46.9631 31.516 47.2676 30.1965 47.7751 28.9784C48.2827 27.7265 48.9932 26.61 49.9406 25.6626L68.0086 8.4743ZM49.027 29.4859C48.5872 30.5348 48.3503 31.6852 48.3165 32.8356C48.3165 33.986 48.4857 35.1702 48.8917 36.2191C49.2639 37.268 49.8729 38.2831 50.6173 39.129L50.7188 39.2305C50.8541 39.3658 51.0007 39.5124 51.1586 39.6703L51.2601 39.7718L51.294 39.8057C51.3842 39.8733 51.4631 39.941 51.5308 40.0087L51.7677 40.1779C51.8579 40.2681 51.9481 40.347 52.0383 40.4147C52.512 40.7869 52.9181 41.0237 53.2903 41.1929L53.3241 41.2267C54.2715 41.7343 55.3542 42.0388 56.5723 42.1741L57.0121 42.208C57.1475 42.208 57.2828 42.208 57.4181 42.208H57.4858C57.7339 42.208 57.9708 42.208 58.1964 42.208L58.2979 42.1741C58.3881 42.1741 58.4896 42.1628 58.6024 42.1403H58.6701C58.7377 42.1403 58.7941 42.129 58.8392 42.1065C58.9295 42.1065 59.0084 42.0952 59.0761 42.0726C59.1663 42.0726 59.2565 42.0613 59.3468 42.0388C59.5498 42.005 59.7528 41.9711 59.8881 41.9034H59.922C59.9896 41.8809 60.046 41.8583 60.0911 41.8358C60.1814 41.8132 60.2716 41.7907 60.3618 41.7681L60.7678 41.6328L61.6814 41.3282C61.8844 41.2606 82.287 34.4597 84.6555 33.7153L85.0615 33.5462L85.4675 33.4108L85.8735 33.2755C85.9186 33.2529 85.975 33.2304 86.0427 33.2078C86.1329 33.1627 86.2119 33.1289 86.2795 33.1063C86.8209 32.8582 87.3397 32.5875 87.836 32.2943C88.8172 31.7191 89.7307 31.0085 90.5766 30.2303L90.6104 30.1965C91.9977 28.8769 93.1142 27.2528 93.8925 25.4934C94.6707 23.7678 95.1105 21.8392 95.1782 19.9106C95.2459 17.982 94.9075 16.0195 94.2308 14.2263C93.5879 12.433 92.5391 10.7413 91.2195 9.32018C89.8999 7.8991 88.2758 6.71487 86.5502 5.90282C84.7908 5.09078 82.8622 4.61709 80.8998 4.51559C78.9712 4.41408 76.9749 4.7186 75.1478 5.36146C73.3545 6.03817 71.5951 7.05322 70.174 8.37279L69.565 8.91416L68.9559 9.48936L50.888 26.6438C50.1098 27.4558 49.4669 28.437 49.027 29.4859Z" fill="#416FB6"></path><path fill-rule="evenodd" clip-rule="evenodd" d="M70.7494 10.5383L71.223 10.0646L71.7306 9.62473C73.0163 8.47433 74.505 7.56078 76.1291 6.98559C77.7194 6.41039 79.445 6.17354 81.1706 6.24121C82.8623 6.30888 84.5541 6.74874 86.1105 7.45928C87.6331 8.16982 89.0542 9.18488 90.2046 10.4368C91.355 11.6887 92.2685 13.1774 92.8437 14.7338C93.4189 16.3241 93.7234 18.0497 93.6558 19.7415C93.6219 21.4332 93.2159 23.0911 92.5392 24.6476C91.8625 26.1701 90.8813 27.5912 89.6632 28.7416C89.6632 28.7416 89.6519 28.7529 89.6294 28.7754C88.885 29.486 88.073 30.095 87.2271 30.6025C86.7759 30.8507 86.3248 31.0762 85.8737 31.2792C85.7609 31.3469 85.6368 31.4033 85.5015 31.4484L85.1631 31.5838L84.791 31.7191L84.4526 31.8206C82.5578 32.4296 66.0463 37.9448 66.0463 37.9448L65.3357 38.1816L64.9635 38.2831C64.8507 38.3282 64.7267 38.3733 64.5914 38.4185C64.3545 38.4861 64.0838 38.52 63.8132 38.5876C63.7004 38.6102 63.5763 38.6328 63.441 38.6553H63.3733C63.2718 38.6553 63.1364 38.6891 63.0688 38.6891H62.9673C62.7643 38.7117 62.55 38.723 62.3244 38.723H62.2567C62.1214 38.723 61.9973 38.7117 61.8845 38.6891L61.4785 38.6553C60.4296 38.5538 59.4146 38.2831 58.4672 37.7756C58.0612 37.5726 57.6551 37.3019 57.2829 37.0312C57.1927 36.9635 57.1025 36.8959 57.0123 36.8282L56.8431 36.6929C56.798 36.6478 56.7416 36.6026 56.6739 36.5575L56.5386 36.4222L56.4709 36.3545C56.3356 36.2192 56.2002 36.0838 56.0649 35.9485L55.9972 35.847C55.2867 35.0688 54.7453 34.1552 54.3731 33.1402C54.0009 32.159 53.8318 31.1101 53.8656 30.0273C53.8994 28.9784 54.1025 27.9296 54.5085 26.9483C54.9145 25.9671 55.5235 25.0536 56.2341 24.3092L70.7494 10.5383ZM55.5912 27.3882C55.2528 28.2341 55.0498 29.1476 55.016 30.0612C55.016 30.9747 55.1513 31.9221 55.4897 32.768C55.7942 33.6139 56.2679 34.3921 56.8769 35.0688L56.9446 35.1365C57.0574 35.2718 57.1702 35.3959 57.2829 35.5086L57.3506 35.5763L57.3845 35.6101C57.4521 35.6778 57.5198 35.7455 57.5875 35.8132L57.7566 35.9485C57.8469 36.0162 57.9258 36.0726 57.9935 36.1177C58.3657 36.3884 58.704 36.5914 59.0086 36.7605H59.0424C59.7868 37.1666 60.6665 37.4034 61.6139 37.5387H61.9522C62.065 37.5613 62.1778 37.5726 62.2906 37.5726H62.3582C62.5387 37.55 62.7191 37.5387 62.8996 37.5387H62.9673C62.9898 37.5387 63.0237 37.5387 63.0688 37.5387C63.0688 37.5387 63.08 37.5275 63.1026 37.5049H63.3056C63.3507 37.4824 63.3958 37.4711 63.441 37.4711C63.5086 37.4711 63.565 37.4598 63.6101 37.4372C63.6778 37.4372 63.7455 37.426 63.8132 37.4034C63.9936 37.3809 64.1402 37.347 64.253 37.3019H64.2868C64.3319 37.2793 64.3771 37.2681 64.4222 37.2681C64.4899 37.2455 64.5575 37.223 64.6252 37.2004L64.9635 37.0989L65.6741 36.862C65.8433 36.7944 82.2195 31.3469 84.1143 30.7379L84.4526 30.6025L84.7571 30.501L85.0955 30.3657C85.1406 30.3657 85.1744 30.3544 85.197 30.3319C85.2646 30.3093 85.3323 30.2755 85.4 30.2304C85.8286 30.0499 86.2459 29.8469 86.6519 29.6213C87.4301 29.1476 88.1745 28.5724 88.8512 27.9634V27.9296C89.9677 26.8468 90.8813 25.5611 91.4903 24.1739C92.1332 22.7866 92.4715 21.2302 92.5054 19.7076C92.573 18.1512 92.3024 16.5948 91.761 15.1399C91.2535 13.7188 90.4076 12.3654 89.3587 11.215C88.3098 10.0984 87.0241 9.15104 85.6368 8.50817C84.2158 7.8653 82.6593 7.45928 81.1029 7.39161C79.5465 7.32394 77.9562 7.56079 76.5352 8.06832C75.0464 8.60968 73.693 9.42172 72.5088 10.4706L72.0351 10.9105L71.5614 11.3842L57.0799 25.1212C56.4371 25.7641 55.9295 26.5423 55.5912 27.3882Z" fill="#51C0AD"></path><path fill-rule="evenodd" clip-rule="evenodd" d="M73.4897 12.5689L73.8619 12.2305L74.2003 11.8922C75.1815 11.0125 76.2981 10.3358 77.5161 9.92975C78.7342 9.4899 80.0199 9.28688 81.3057 9.35455C82.5914 9.42222 83.8771 9.72674 85.0275 10.2681C86.1779 10.8095 87.2607 11.5877 88.1065 12.5012C88.9863 13.4486 89.6629 14.5652 90.1028 15.7494C90.5427 16.9675 90.7795 18.2194 90.7118 19.5051C90.678 20.7908 90.4073 22.0427 89.866 23.1931C89.3584 24.3774 88.6141 25.4263 87.7005 26.306C87.1366 26.8473 86.5275 27.3098 85.8734 27.6932C85.5576 27.8737 85.2193 28.0428 84.8583 28.2007C84.7681 28.2459 84.6779 28.291 84.5877 28.3361L84.317 28.4376L84.0463 28.5053L83.7756 28.6068C82.3546 29.0805 69.937 33.2083 69.937 33.2083L69.3957 33.3775L69.125 33.479C69.0348 33.5016 68.9445 33.5241 68.8543 33.5467C68.6513 33.6144 68.4483 33.6482 68.2791 33.682C68.1663 33.7046 68.0648 33.7272 67.9746 33.7497C67.8731 33.7497 67.7378 33.7497 67.6363 33.7836H67.5686C67.4558 33.7836 67.3317 33.7836 67.1964 33.7836H67.0949C67.0047 33.7836 66.9032 33.7836 66.7904 33.7836L66.5197 33.7497C65.7077 33.682 64.9633 33.4452 64.2527 33.073C63.9482 32.9377 63.6437 32.7685 63.373 32.5655C63.2828 32.4978 63.1926 32.4189 63.1023 32.3286L63.0008 32.261C62.9783 32.2384 62.9445 32.2046 62.8993 32.1595L62.7978 32.058L62.6963 31.9903C62.6286 31.9001 62.5497 31.8098 62.4595 31.7196L62.3918 31.6519C61.8504 31.0429 61.4444 30.3662 61.1737 29.6218C60.8692 28.8774 60.7677 28.0654 60.7677 27.2534C60.8016 26.4752 60.9707 25.6631 61.2753 24.9526C61.5798 24.2082 62.0196 23.5315 62.561 22.9563L73.4897 12.5689ZM62.1211 25.2571C61.8505 25.9 61.7151 26.5767 61.6813 27.2534C61.6813 27.9639 61.7828 28.6406 62.0196 29.2835C62.2565 29.8925 62.6287 30.5015 63.0685 31.0091L63.1362 31.1106C63.2039 31.1782 63.2715 31.2459 63.3392 31.3136L63.4407 31.3813L63.5422 31.4828C63.5422 31.4828 63.5535 31.494 63.576 31.5166L63.6099 31.5504L63.7452 31.6519C63.7903 31.697 63.8467 31.7422 63.9144 31.7873C64.1851 31.9903 64.4219 32.1256 64.6588 32.261H64.6926C65.2565 32.5542 65.8881 32.7459 66.5874 32.8362H66.8919C66.9596 32.8587 67.0272 32.87 67.0949 32.87H67.2302C67.3205 32.87 67.422 32.8587 67.5348 32.8362H67.6363C67.6588 32.8362 67.6814 32.8362 67.7039 32.8362C67.7039 32.8362 67.7152 32.8362 67.7378 32.8362L67.8731 32.8023C67.8957 32.8023 67.9182 32.8023 67.9408 32.8023C68.0423 32.8023 68.1776 32.7685 68.2791 32.7347C68.3919 32.7121 68.4934 32.6895 68.5836 32.667H68.6175C68.64 32.6444 68.6739 32.6332 68.719 32.6332C68.7641 32.6106 68.8092 32.5993 68.8543 32.5993L69.125 32.4978L69.6664 32.3286C69.7679 32.2948 82.1177 28.1669 83.5049 27.7271L83.7756 27.6255L84.0125 27.5579L84.2832 27.4564C84.3057 27.4338 84.3283 27.4225 84.3508 27.4225C84.3959 27.4 84.4411 27.3774 84.4862 27.3549H84.52C84.8358 27.2195 85.1403 27.0616 85.4336 26.8812C86.02 26.5203 86.5614 26.103 87.0576 25.6293H87.0915C87.9374 24.8172 88.6141 23.836 89.0539 22.821C89.5276 21.7721 89.7983 20.5878 89.8321 19.4374C89.866 18.287 89.6629 17.1366 89.2569 16.0539C88.8847 14.9712 88.2419 13.9561 87.4637 13.1103C86.6855 12.2644 85.7042 11.5538 84.6553 11.0801C83.6065 10.5726 82.4561 10.3019 81.3057 10.2343C80.1214 10.1666 78.9372 10.3696 77.8545 10.7418C76.7379 11.1478 75.7229 11.7569 74.8431 12.5351L74.471 12.8734L74.1326 13.2118L63.2377 23.5653C62.764 24.039 62.358 24.648 62.1211 25.2571Z" fill="#F37820"></path><path fill-rule="evenodd" clip-rule="evenodd" d="M76.2305 14.6341L76.4673 14.3972L76.7042 14.1604C77.3471 13.5852 78.1253 13.1453 78.9373 12.8408C79.7493 12.5363 80.5952 12.4348 81.4749 12.4686C82.3208 12.5025 83.2005 12.7055 83.9788 13.0776C84.757 13.4498 85.4675 13.9574 86.0427 14.6002C86.6179 15.2093 87.0916 15.9536 87.3623 16.7657C87.6668 17.5777 87.8021 18.4236 87.8021 19.2695C87.7683 20.1154 87.5653 20.9951 87.2269 21.7733C86.8886 22.5515 86.381 23.262 85.772 23.8372C85.772 23.8372 85.7607 23.8372 85.7382 23.8372C85.3773 24.1981 84.9712 24.5139 84.5201 24.7846C84.3171 24.8974 84.0915 25.0102 83.8434 25.123C83.7983 25.1455 83.7419 25.1681 83.6742 25.1906L83.505 25.2583L83.302 25.326L83.1329 25.3937C82.1855 25.6982 73.8282 28.4727 73.8282 28.4727L73.4898 28.608L73.2868 28.6418C73.2192 28.6644 73.1628 28.6869 73.1177 28.7095C72.9823 28.7433 72.847 28.7772 72.7116 28.811C72.644 28.811 72.5763 28.8223 72.5086 28.8448H72.4071C72.3846 28.8448 72.362 28.8448 72.3394 28.8448H72.3056C72.1928 28.8674 72.0688 28.8787 71.9334 28.8787C71.8658 28.8787 71.7981 28.8674 71.7304 28.8448H71.5274C71.0199 28.7772 70.4785 28.6418 70.0048 28.405C69.8695 28.3148 69.7229 28.2245 69.565 28.1343C69.4296 28.0441 69.3056 27.9426 69.1928 27.8298C69.1702 27.8072 69.1477 27.7959 69.1251 27.7959L69.0236 27.6944C68.9334 27.6042 68.8544 27.5253 68.7868 27.4576L68.7529 27.4238C68.4146 27.0177 68.1439 26.5779 67.9409 26.0704C67.7717 25.5628 67.6702 25.0215 67.6702 24.4801C67.704 23.9387 67.8055 23.4312 68.0085 22.9237C68.2116 22.4162 68.5161 21.9763 68.8883 21.6041L76.2305 14.6341ZM68.6514 23.1605C68.4822 23.5666 68.3807 24.0402 68.3469 24.4801C68.3469 24.9538 68.4146 25.3937 68.5837 25.8335C68.7191 26.2395 68.9559 26.6456 69.2605 26.9839H69.2943C69.3619 27.0516 69.4296 27.1192 69.4973 27.1869L69.5311 27.2208L69.565 27.2884C69.5875 27.2884 69.5988 27.2884 69.5988 27.2884L69.6326 27.3223L69.7003 27.3899C69.7454 27.435 69.7905 27.4689 69.8357 27.4914C70.0048 27.6268 70.174 27.7283 70.3093 27.7959H70.3432C70.7266 27.999 71.144 28.123 71.5951 28.1681L71.7981 28.202C71.8432 28.202 71.8883 28.202 71.9334 28.202H71.9673C72.0575 28.202 72.159 28.1907 72.2718 28.1681H72.3056C72.3056 28.1681 72.3169 28.1681 72.3394 28.1681C72.3394 28.1681 72.3507 28.1681 72.3733 28.1681H72.441C72.4635 28.1681 72.4861 28.1681 72.5086 28.1681C72.5537 28.1456 72.5876 28.1343 72.6101 28.1343C72.6327 28.1343 72.6665 28.1343 72.7116 28.1343C72.8019 28.1117 72.8695 28.0892 72.9146 28.0666H72.9485C72.9711 28.0666 72.9936 28.0554 73.0161 28.0328C73.0387 28.0328 73.0726 28.0328 73.1177 28.0328L73.2868 27.9651L73.6252 27.8298C73.7267 27.7959 81.9825 25.0553 82.9299 24.7508L83.099 24.6831L83.2682 24.6493L83.4374 24.5816L83.505 24.5478C83.5276 24.5252 83.5615 24.5139 83.6066 24.5139C83.8096 24.4237 84.0126 24.3109 84.2156 24.1756C84.6216 23.95 84.9825 23.6793 85.2983 23.3635H85.3322C85.8735 22.8222 86.3472 22.1793 86.6517 21.4688C86.9563 20.7921 87.1254 20.0139 87.1593 19.2357C87.1593 18.4913 87.0577 17.7131 86.7871 16.9687C86.5164 16.2582 86.0765 15.5815 85.569 15.0401C85.0276 14.4649 84.3848 13.9912 83.7081 13.6529C82.9975 13.3483 82.2193 13.1453 81.4749 13.1115C80.6967 13.0777 79.8847 13.1792 79.1742 13.4498C78.4298 13.7205 77.7531 14.1265 77.1779 14.6341L76.941 14.8709L76.6704 15.1078L69.362 22.044C69.0574 22.3823 68.8206 22.7545 68.6514 23.1605Z" fill="#FBB414"></path><path fill-rule="evenodd" clip-rule="evenodd" d="M78.9375 16.6968L79.0728 16.5615L79.2082 16.4599C79.5127 16.1554 79.9187 15.9186 80.3248 15.7832C80.7308 15.6141 81.2045 15.5464 81.6443 15.5802C82.0842 15.5802 82.4902 15.7156 82.8962 15.8848C83.3022 16.0878 83.6744 16.3246 83.9451 16.663C84.2496 16.9675 84.4865 17.3735 84.6557 17.7795C84.791 18.1855 84.8587 18.6254 84.8587 19.0653C84.8248 19.4713 84.7572 19.9111 84.5542 20.3172C84.385 20.7232 84.1481 21.0615 83.8098 21.366C83.8098 21.366 83.8098 21.3773 83.8098 21.3999C83.6293 21.5803 83.4263 21.727 83.2007 21.8397C83.088 21.9074 82.9639 21.9751 82.8285 22.0428C82.806 22.0428 82.7834 22.054 82.7609 22.0766L82.6594 22.1104L82.5579 22.1443L82.4902 22.1781C81.9827 22.3134 77.7194 23.7345 77.7194 23.7345L77.5503 23.8022L77.4488 23.836C77.4262 23.836 77.3924 23.8473 77.3473 23.8699C77.3247 23.8699 77.3021 23.8699 77.2796 23.8699C77.2119 23.9037 77.1104 23.9037 77.0089 23.9375C76.9864 23.9375 76.9751 23.9375 76.9751 23.9375H76.9074C76.8848 23.9375 76.851 23.9375 76.8059 23.9375H76.7721C76.7269 23.9375 76.6931 23.9375 76.6706 23.9375H76.569C76.2984 23.9037 76.0277 23.836 75.7908 23.7007C75.678 23.6556 75.5766 23.5879 75.4863 23.4977C75.4638 23.4977 75.4412 23.4864 75.4187 23.4638L75.351 23.43C75.351 23.4074 75.3397 23.3962 75.3172 23.3962L75.2833 23.3623L75.2495 23.3285C75.2269 23.3059 75.2044 23.2834 75.1818 23.2608L75.148 23.1932C74.9675 22.9901 74.8322 22.7646 74.742 22.5164C74.6292 22.2458 74.584 21.9751 74.6066 21.7044C74.6066 21.4337 74.663 21.1743 74.7758 20.9262C74.866 20.6555 75.0126 20.4187 75.2156 20.2157L78.9375 16.6968ZM75.1141 21.0954C75.0465 21.2984 75.0126 21.5352 74.9788 21.7382C74.9788 21.9751 75.0126 22.2119 75.1141 22.4149C75.1818 22.618 75.2833 22.7871 75.4187 22.9563L75.4863 22.9901C75.4863 23.0127 75.4976 23.0352 75.5202 23.0578L75.554 23.0916L75.5878 23.1255H75.6217L75.6555 23.1593C75.6781 23.1819 75.6893 23.2044 75.6893 23.227C75.7908 23.2947 75.8923 23.3285 75.96 23.3623C76.1405 23.4526 76.3435 23.5202 76.569 23.5653H76.6706C76.6931 23.5653 76.7157 23.5653 76.7382 23.5653H76.8059C76.8284 23.5653 76.851 23.5653 76.8736 23.5653H76.9074H76.9412L76.9751 23.5315H77.0427C77.0427 23.5315 77.054 23.5315 77.0766 23.5315C77.0991 23.5315 77.1104 23.5315 77.1104 23.5315C77.1555 23.5315 77.1894 23.5202 77.2119 23.4977H77.2457H77.2796C77.2796 23.4977 77.2909 23.4864 77.3134 23.4638L77.4149 23.43L77.5841 23.3962C77.6179 23.3623 81.8473 21.9751 82.321 21.8059L82.4225 21.7721L82.4902 21.7382L82.5917 21.7044H82.6255C82.6255 21.7044 82.6368 21.7044 82.6594 21.7044C82.7722 21.6367 82.8737 21.5803 82.9639 21.5352C83.1669 21.4224 83.3474 21.2871 83.5052 21.1292C83.8098 20.8585 84.0128 20.5202 84.182 20.1818C84.3173 19.8435 84.4188 19.4374 84.4188 19.0653C84.4526 18.6931 84.385 18.2871 84.2496 17.9487C84.1143 17.5765 83.9113 17.2382 83.6406 16.9675C83.3699 16.6968 83.0654 16.4599 82.727 16.2908C82.3549 16.1216 81.9827 16.0201 81.6105 16.0201C81.2045 15.9863 80.7984 16.0539 80.4601 16.1893C80.0879 16.3246 79.7496 16.5276 79.4789 16.7645L79.3435 16.8998L79.2082 17.0013L75.4863 20.554C75.351 20.7232 75.2156 20.8924 75.1141 21.0954Z" fill="#EC2590"></path><path fill-rule="evenodd" clip-rule="evenodd" d="M79.6138 20.8582C79.6138 20.8582 79.6026 20.8582 79.58 20.8582H79.5462C79.4108 20.8357 79.298 20.8019 79.2078 20.7567C79.1853 20.7342 79.1514 20.7003 79.1063 20.6552C79.0837 20.6552 79.0725 20.6552 79.0725 20.6552L79.0048 20.5876C78.9822 20.5876 78.971 20.5763 78.971 20.5537C78.8807 20.4635 78.8131 20.362 78.7679 20.2492C78.7454 20.159 78.7341 20.0462 78.7341 19.9109C78.7341 19.7981 78.7567 19.6966 78.8018 19.6063C78.8469 19.4936 78.9033 19.3921 78.971 19.3018L80.3582 18.0161C80.4935 17.9033 80.6402 17.8131 80.7981 17.7454C80.956 17.7003 81.1251 17.6777 81.3056 17.6777C81.4635 17.6777 81.6214 17.7116 81.7793 17.7792C81.9372 17.8695 82.0725 17.971 82.1853 18.0838C82.3207 18.2191 82.4109 18.3657 82.456 18.5236C82.5237 18.6815 82.5575 18.8507 82.5575 19.0311C82.5349 19.189 82.4898 19.3469 82.4222 19.5048C82.3545 19.6627 82.2642 19.7981 82.1515 19.9109C82.0838 20.0011 82.0049 20.0688 81.9146 20.1139C81.8695 20.1364 81.8244 20.159 81.7793 20.1815L81.6439 20.2154C81.4748 20.283 79.986 20.7567 79.986 20.7567L79.8845 20.8244C79.862 20.8244 79.8507 20.8244 79.8507 20.8244L79.6815 20.8582C79.6589 20.8582 79.6477 20.8582 79.6477 20.8582H79.6138ZM79.2078 19.5387C79.1401 19.5838 79.095 19.6402 79.0725 19.7078C79.0499 19.7755 79.0386 19.8545 79.0386 19.9447C79.0386 20.0124 79.0499 20.08 79.0725 20.1477C79.095 20.2154 79.1289 20.283 79.174 20.3507L79.2755 20.4184C79.298 20.4409 79.3206 20.4635 79.3431 20.4861C79.4108 20.5086 79.4898 20.5312 79.58 20.5537C79.6026 20.5537 79.6138 20.5537 79.6138 20.5537H79.6477H79.6815L79.8507 20.5199L79.9184 20.4861C79.9184 20.4861 81.3733 20.0124 81.5424 19.9447L81.6439 19.9109C81.689 19.8883 81.7229 19.8657 81.7455 19.8432C81.8131 19.7981 81.8808 19.753 81.9485 19.7078C82.0387 19.6176 82.1063 19.5161 82.1515 19.4033C82.2191 19.268 82.253 19.1326 82.253 18.9973C82.253 18.8845 82.2304 18.7605 82.1853 18.6251C82.1402 18.5123 82.0725 18.3996 81.9823 18.2868C81.8921 18.1965 81.7906 18.1289 81.6778 18.0838C81.5424 18.0161 81.4071 17.9822 81.2718 17.9822C81.1364 17.9822 81.0124 18.0048 80.8996 18.0499C80.7642 18.095 80.6515 18.1514 80.5612 18.2191L79.2078 19.5387Z" fill="#ED3823"></path><path d="M3.85722 37.3361H0V35.0015H10.2859L9.16933 37.3361H6.42868V48.5355H3.85722V37.3361Z" fill="#050505"></path><path d="M19.7262 42.5812H14.9216V48.5362H12.3501V35.0021H14.9216V40.3142H20.7751L19.7262 42.5812ZM21.3503 34.9683H23.9217V48.5362H21.3503V34.9683Z" fill="#050505"></path><path d="M29.5383 37.2346V40.6519H35.3918L34.2752 42.7497H29.5383V46.3024H35.7978V48.5355H26.9668V35.0015H35.7978V37.2346H29.5383Z" fill="#050505"></path><path d="M59.0764 55.1335H55.2192V52.7988H65.5051L64.4224 55.1335H61.6479V66.3667H59.0764V55.1335Z" fill="#050505"></path><path d="M2.3008 66.2986C1.48875 66.0956 0.721817 65.8249 0 65.4866V63.0166C1.6692 63.9189 3.16923 64.37 4.50008 64.37C5.17679 64.37 5.71815 64.2234 6.12417 63.9301C6.53019 63.6595 6.73321 63.2534 6.73321 62.7121C6.73321 62.3512 6.62042 62.0466 6.39486 61.7985C6.16929 61.5504 5.88733 61.3474 5.54898 61.1895C5.21062 61.009 4.72565 60.806 4.09406 60.5805C3.25946 60.2647 2.57147 59.9714 2.03011 59.7007C1.48875 59.4075 1.03761 59.0015 0.676703 58.4827C0.293238 57.9413 0.101512 57.2533 0.101512 56.4187C0.101512 55.2007 0.530086 54.2533 1.38724 53.5766C2.22184 52.8999 3.37224 52.5615 4.83844 52.5615C5.5377 52.5615 6.2144 52.6405 6.86855 52.7984C7.52269 52.9337 8.13172 53.148 8.69564 53.4412V55.8774C7.38735 55.1555 6.12417 54.7946 4.9061 54.7946C4.2294 54.7946 3.69932 54.9074 3.31585 55.133C2.93239 55.3811 2.74065 55.7195 2.74065 56.1481C2.74065 56.5992 2.93239 56.9488 3.31585 57.1969C3.72187 57.4451 4.34219 57.727 5.17679 58.0428C6.03394 58.3586 6.74448 58.6631 7.3084 58.9564C7.87232 59.2722 8.3573 59.712 8.76332 60.2759C9.16934 60.8399 9.38363 61.5617 9.40618 62.4414C9.40618 63.7271 8.9776 64.7422 8.12044 65.4866C7.24073 66.2084 6.07906 66.5693 4.63542 66.5693C3.89105 66.5693 3.11284 66.4791 2.3008 66.2986Z" fill="#050505"></path><path d="M14.7182 65.7234C13.6355 65.1595 12.8122 64.3474 12.2483 63.2873C11.6843 62.2271 11.4024 60.9865 11.4024 59.5654C11.4024 58.1443 11.6843 56.9037 12.2483 55.8435C12.8347 54.8059 13.6693 53.9939 14.7521 53.4074C15.8348 52.8435 17.1431 52.5615 18.677 52.5615C19.3085 52.5615 19.9289 52.6179 20.5379 52.7307C21.1695 52.866 21.7334 53.0578 22.2296 53.3059V55.6744H22.1281C21.6319 55.3811 21.1018 55.1668 20.5379 55.0315C19.9514 54.8961 19.3988 54.8285 18.88 54.8285C17.4138 54.8285 16.2521 55.2345 15.3949 56.0465C14.5378 56.8586 14.1092 58.0315 14.1092 59.5654C14.1092 61.0993 14.5265 62.2722 15.3611 63.0843C16.1957 63.8963 17.3348 64.3023 18.7785 64.3023C19.3198 64.3023 19.8837 64.2121 20.4702 64.0316C21.0567 63.8737 21.6093 63.6256 22.1281 63.2873H22.2296V65.6896C21.192 66.276 19.9627 66.5693 18.5416 66.5693C17.0529 66.5693 15.7784 66.2873 14.7182 65.7234Z" fill="#050505"></path><path d="M24.6996 52.7988H27.2711V66.3667H24.6996V52.7988Z" fill="#050505"></path><path d="M53.1213 52.7988V66.3667H50.5498L44.1211 57.4004V66.3667H41.5496V52.7988H44.1211L50.5498 61.7313V52.7988H53.1213Z" fill="#050505"></path><path d="M67.3995 52.7988H69.971V66.3667H67.3995V52.7988Z" fill="#050505"></path><path d="M75.3847 55.0658V58.6523H80.4262L79.3096 60.7839H75.3847V66.3667H72.8133V52.7988H81.7119V55.0658H75.3847Z" fill="#050505"></path><path d="M83.3024 52.7988H85.8738V66.3667H83.3024V52.7988Z" fill="#050505"></path><path d="M91.5582 65.7234C90.4754 65.1595 89.6521 64.3474 89.0882 63.2873C88.5243 62.2271 88.2423 60.9865 88.2423 59.5654C88.2423 58.1443 88.5243 56.9037 89.0882 55.8435C89.6746 54.8059 90.5093 53.9939 91.592 53.4074C92.6747 52.8435 93.983 52.5615 95.5169 52.5615C96.1484 52.5615 96.7688 52.6179 97.3778 52.7307C98.0094 52.866 98.562 53.0578 99.0357 53.3059V55.6744H98.968C98.4718 55.3811 97.9417 55.1668 97.3778 55.0315C96.7913 54.8961 96.2387 54.8285 95.7199 54.8285C94.2311 54.8285 93.0695 55.2345 92.2349 56.0465C91.3777 56.8586 90.9491 58.0315 90.9491 59.5654C90.9491 61.0993 91.3664 62.2722 92.201 63.0843C93.0356 63.8963 94.1747 64.3023 95.6184 64.3023C96.1597 64.3023 96.7237 64.2121 97.3101 64.0316C97.8966 63.8737 98.4492 63.6256 98.968 63.2873H99.0357V65.6896C97.9981 66.276 96.78 66.5693 95.3815 66.5693C93.8928 66.5693 92.6183 66.2873 91.5582 65.7234Z" fill="#050505"></path><path d="M32.6849 55.0658V58.4493H38.5384L37.4556 60.5809H32.6849V64.0998H38.9782V66.3667H30.1134V52.7988H38.9782V55.0658H32.6849Z" fill="#050505"></path><path d="M42.4295 72.9992H38.5723V70.6646H48.8582L47.7754 72.9992H45.0009V84.1986H42.4295V72.9992Z" fill="#050505"></path><path d="M3.28202 83.5891C2.22185 83.0252 1.4098 82.2132 0.845879 81.153C0.28196 80.0928 0 78.8522 0 77.4311C0 76.0101 0.28196 74.7694 0.845879 73.7093C1.4098 72.6491 2.24441 71.837 3.34969 71.2731C4.43242 70.7092 5.72943 70.4272 7.24073 70.4272C7.89488 70.4272 8.52646 70.4836 9.1355 70.5964C9.74453 70.7318 10.2972 70.9235 10.7934 71.1716V73.5401H10.7258C10.2295 73.2468 9.68815 73.0326 9.10167 72.8972C8.53775 72.7393 7.99638 72.6604 7.47757 72.6604C5.98883 72.6604 4.81588 73.0777 3.95872 73.9123C3.12412 74.7243 2.70681 75.8973 2.70681 77.4311C2.70681 78.9424 3.12412 80.1154 3.95872 80.95C4.77076 81.762 5.8986 82.1681 7.34224 82.1681C7.90616 82.1681 8.48136 82.0778 9.06783 81.8974C9.63175 81.7169 10.1844 81.4688 10.7258 81.153H10.7934V83.5553C9.75582 84.1418 8.53774 84.435 7.13922 84.435C5.65048 84.435 4.36474 84.153 3.28202 83.5891Z" fill="#050505"></path><path d="M16.0379 72.8977V76.315H21.8914L20.8087 78.4128H16.0379V81.9317H22.2975V84.1986H13.4665V70.6646H22.2975V72.8977H16.0379Z" fill="#050505"></path><path d="M53.4594 72.8977V76.315H59.3129L58.2302 78.4128H53.4594V81.9317H59.7528V84.1986H50.888V70.6646H59.7528V72.8977H53.4594Z" fill="#050505"></path><path d="M36.5082 70.6646V84.1986H33.9367L27.508 75.2323V84.1986H24.9366V70.6646H27.508L33.9367 79.597V70.6646H36.5082Z" fill="#050505"></path><path fill-rule="evenodd" clip-rule="evenodd" d="M70.174 84.1986L67.3995 79.0557H64.9633V84.1986H62.3919V70.6646H67.298C69.0574 70.6646 70.3657 71.0142 71.2229 71.7134C72.1026 72.4127 72.5424 73.4278 72.5424 74.7586C72.5424 75.706 72.3281 76.5068 71.8996 77.1609C71.471 77.8376 70.8281 78.3339 69.9709 78.6497L72.9823 84.1986H70.174ZM64.9972 76.7887H67.3318C68.189 76.7887 68.8206 76.6421 69.2266 76.3489C69.6326 76.0331 69.8356 75.5255 69.8356 74.8263C69.8356 74.127 69.6326 73.642 69.2266 73.3714C68.8431 73.0781 68.2003 72.9315 67.298 72.9315H64.9972V76.7887Z" fill="#050505"></path><path d="M51.9708 90.6265C52.343 90.6265 52.6475 90.2881 52.6475 89.916C52.6475 89.5438 52.343 89.2393 51.9708 89.2393C51.5986 89.2393 51.2603 89.5438 51.2603 89.916C51.2603 90.2881 51.5986 90.6265 51.9708 90.6265Z" fill="#050505"></path><path d="M97.6483 89.3739V95.4981H99.0355V88.5957L97.6483 89.3739Z" fill="#050505"></path><path fill-rule="evenodd" clip-rule="evenodd" d="M94.5354 89.3739L95.8888 88.5957V93.671C95.8888 94.686 95.0767 95.5319 94.0279 95.5319H92.3699V95.5996C92.0316 96.5808 91.0842 97.2575 90.0691 97.2575C88.9864 97.2575 88.0729 96.5808 87.7345 95.5658V95.4981H71.8658V95.5996C71.8433 95.8477 71.7869 96.062 71.6966 96.2425C71.5613 96.5131 71.3921 96.7387 71.1891 96.9192C70.9861 97.0996 70.738 97.2349 70.4447 97.3252C70.1741 97.4154 69.8808 97.4605 69.565 97.4605C69.4748 97.4605 69.3733 97.4492 69.2605 97.4267V96.2763C69.3282 96.2763 69.3958 96.2763 69.4635 96.2763C69.7793 96.2763 70.0387 96.1748 70.2417 95.9718C70.4222 95.7913 70.5124 95.5094 70.5124 95.1259V91.6747H71.8658V94.1447H87.7345V94.077C88.0729 93.0619 89.0202 92.3852 90.0691 92.3852C91.118 92.3852 92.0316 93.0619 92.3699 94.077L92.4038 94.1447H94.0279C94.2985 94.1447 94.5354 93.9417 94.5354 93.671V89.3739ZM91.1519 94.8214C91.1519 94.2462 90.6443 93.7386 90.0691 93.7386C89.4601 93.7386 88.9864 94.2462 88.9864 94.8214C88.9864 95.4304 89.4601 95.9041 90.0691 95.9041C90.6443 95.9041 91.1519 95.4304 91.1519 94.8214Z" fill="#050505"></path><path d="M66.1479 90.2876H66.1141C66.0464 90.2876 65.9787 90.2876 65.911 90.2876H63.8133L65.8772 87.75H64.3208L61.1403 91.641H65.911C66.0915 91.641 66.2494 91.6749 66.3847 91.7425C66.5426 91.8102 66.6667 91.9004 66.7569 92.0132C66.8697 92.126 66.9599 92.2501 67.0276 92.3854C67.0727 92.5433 67.0953 92.7125 67.0953 92.8929C67.0953 93.0734 67.0727 93.2313 67.0276 93.3666C66.9599 93.5245 66.8697 93.6599 66.7569 93.7727C66.6667 93.8854 66.5426 93.9757 66.3847 94.0433C66.2494 94.111 66.0915 94.1448 65.911 94.1448H52.6477V91.7764L51.2943 92.5208V95.1261C51.2943 95.5095 51.1927 95.7915 50.9897 95.9719C50.8093 96.175 50.5499 96.2765 50.2115 96.2765C50.1664 96.2765 50.11 96.2765 50.0423 96.2765V97.4269C50.1326 97.4494 50.2341 97.4607 50.3469 97.4607C50.6401 97.4607 50.9333 97.4156 51.2266 97.3253C51.4973 97.2351 51.7341 97.0998 51.9371 96.9193C52.1627 96.7389 52.3319 96.5133 52.4446 96.2426C52.5349 96.0396 52.5913 95.8253 52.6138 95.5998L52.6477 95.4983H65.8095C65.8321 95.4983 65.8546 95.4983 65.8772 95.4983H66.1141C66.1366 95.4983 66.1704 95.4983 66.2156 95.4983C67.0276 95.4644 67.772 95.0584 68.2457 94.3817C68.5502 93.9418 68.7194 93.4343 68.7194 92.8929C68.7194 91.4719 67.569 90.2876 66.1479 90.2876Z" fill="#050505"></path><path d="M46.7942 95.4655H48.2153V88.5293L46.7942 89.3075V95.4655Z" fill="#050505"></path><path fill-rule="evenodd" clip-rule="evenodd" d="M43.1737 94.0444C43.4444 94.0444 43.6812 93.8414 43.6812 93.5707V89.3075L45.0684 88.5293V93.5707C45.0684 94.6196 44.2226 95.4655 43.1737 95.4655H42.8015H42.7L36.8465 95.4317C36.8014 95.4317 36.7563 95.4317 36.7112 95.4317C36.1021 95.4317 35.572 95.3076 35.1209 95.0595C35.0081 95.0144 34.9066 94.958 34.8164 94.8903L34.7149 94.8226L34.6472 94.8903C34.3765 95.2625 33.9367 95.4317 33.3953 95.4317L23.4139 95.4655C23.0079 95.4655 22.6019 95.3302 22.2974 95.0933L22.2297 95.0257L22.162 95.0933C21.8237 95.3302 21.4515 95.4655 21.0455 95.4655H17.0529L17.0191 95.5332C16.7146 96.5821 15.7672 97.2926 14.6506 97.2926C13.5679 97.2926 12.6205 96.5821 12.2822 95.567V95.4655H10.7934C9.84604 95.4655 8.93249 95.2287 8.49263 94.7888L8.35729 94.6535L8.28962 94.8226C7.95126 96.4129 6.29334 97.4956 4.29707 97.4956C1.89477 97.4956 0 95.7362 0 93.4354V92.082H1.48876V93.2662C1.48876 95.0256 2.57148 96.1422 4.33091 96.1422C5.00761 96.1422 5.68431 95.9054 6.19184 95.567C6.7332 95.161 7.00388 94.6196 7.00388 94.0444C7.00388 93.3001 6.39485 92.8602 5.75198 92.8602C5.70686 92.8602 5.65047 92.8602 5.5828 92.8602V91.6083C5.71814 91.6083 5.92116 91.6083 6.22568 91.6083C7.40991 91.6083 8.32345 92.1497 8.86482 93.2324C9.16933 93.8076 9.81221 94.0444 10.6243 94.0444H12.2822L12.316 93.9768C12.6882 92.9955 13.6017 92.3188 14.6506 92.3188C15.6995 92.3188 16.6469 92.9955 16.9853 93.9768L17.0191 94.0444H21.0455C21.2485 94.0444 21.4515 93.9091 21.5192 93.7061V89.3075L22.9064 88.5293V93.5031V93.5707C22.9064 93.8414 23.1433 94.0444 23.4139 94.0444H33.3953H33.4968V94.0106C33.666 93.9768 33.8013 93.8753 33.869 93.7061V93.6722V93.6384C33.7111 93.2549 33.6322 92.8489 33.6322 92.4203C33.6322 91.8339 33.7562 91.3151 34.0043 90.8639C34.275 90.3902 34.6472 90.018 35.1209 89.7474C35.5946 89.5218 36.136 89.409 36.745 89.409C37.0157 89.409 37.2751 89.4316 37.5232 89.4767C37.7488 89.5218 37.9518 89.5895 38.1322 89.6797L37.5232 90.8978C37.433 90.8752 37.3428 90.8527 37.2525 90.8301C37.0946 90.785 36.9255 90.7624 36.745 90.7624C36.3615 90.7624 36.0345 90.8301 35.7638 90.9654C35.5157 91.1008 35.3352 91.2812 35.2224 91.5068C35.0871 91.7549 35.0194 92.0594 35.0194 92.4203C35.0194 92.7812 35.0871 93.0858 35.2224 93.3339C35.3352 93.5595 35.5157 93.7399 35.7638 93.8753C35.7863 93.8753 35.8202 93.8865 35.8653 93.9091C36.0457 93.9993 36.2487 94.0444 36.4743 94.0444H43.1737ZM15.7334 94.7888C15.7334 94.1798 15.2597 93.6722 14.6506 93.6722C14.0416 93.6722 13.5341 94.1798 13.5341 94.7888C13.5341 95.3978 14.0416 95.8715 14.6506 95.8715C15.2597 95.8715 15.7334 95.3978 15.7334 94.7888Z" fill="#050505"></path><path d="M4.56792 98.5786C4.19573 98.5786 3.85739 98.8831 3.85739 99.2892C3.85739 99.6613 4.19573 99.9997 4.56792 99.9997C4.94011 99.9997 5.27846 99.6613 5.27846 99.2892C5.27846 98.8831 4.94011 98.5786 4.56792 98.5786Z" fill="#050505"></path><path d="M2.57154 98.5786C2.19936 98.5786 1.861 98.8831 1.861 99.2892C1.861 99.6613 2.19936 99.9997 2.57154 99.9997C2.94373 99.9997 3.28209 99.6613 3.28209 99.2892C3.28209 98.8831 2.94373 98.5786 2.57154 98.5786Z" fill="#050505"></path></svg> 